# This file was created with Minddesk Qubicle 3.0
# Get Qubicle at www.getqubicle.com

mtllib fhair_chin.mtl

vn 0.0 0.0 1.0
vn 0.0 0.0 -1.0
vn -1.0 0.0 0.0
vn 1.0 0.0 0.0
vn 0.0 1.0 0.0
vn 0.0 -1.0 0.0

v -9.00000 33.00000 -8.00000
v -9.00000 24.00000 -8.00000
v -10.00000 24.00000 -8.00000
v -10.00000 33.00000 -8.00000
v -9.00000 33.00000 3.00000
v -9.00000 30.00000 3.00000
v -10.00000 30.00000 3.00000
v -10.00000 33.00000 3.00000
v -9.00000 24.00000 -7.00000
v -9.00000 23.00000 -7.00000
v -10.00000 23.00000 -7.00000
v -10.00000 24.00000 -7.00000
v -9.00000 23.00000 -6.00000
v -9.00000 22.00000 -6.00000
v -10.00000 22.00000 -6.00000
v -10.00000 23.00000 -6.00000
v -10.00000 33.00000 8.00000
v -10.00000 24.00000 8.00000
v -9.00000 24.00000 8.00000
v -9.00000 33.00000 8.00000
v -10.00000 33.00000 -3.00000
v -10.00000 30.00000 -3.00000
v -9.00000 30.00000 -3.00000
v -9.00000 33.00000 -3.00000
v -10.00000 23.00000 6.00000
v -10.00000 22.00000 6.00000
v -9.00000 22.00000 6.00000
v -9.00000 23.00000 6.00000
v -10.00000 24.00000 7.00000
v -10.00000 23.00000 7.00000
v -9.00000 23.00000 7.00000
v -9.00000 24.00000 7.00000
v -10.00000 30.00000 -8.00000
v -10.00000 30.00000 8.00000
v -9.00000 30.00000 8.00000
v -9.00000 30.00000 -8.00000

vt 0.03125 0.40625
vt 0.03125 0.03125
vt 0.06250 0.03125
vt 0.06250 0.40625
vt 0.12500 0.31250
vt 0.12500 0.03125
vt 0.15625 0.03125
vt 0.15625 0.31250
vt 0.21875 0.31250
vt 0.21875 0.03125
vt 0.25000 0.03125
vt 0.25000 0.31250
vt 0.31250 0.21875
vt 0.31250 0.03125
vt 0.81250 0.03125
vt 0.81250 0.21875
vt 0.03125 0.65625
vt 0.03125 0.46875
vt 0.53125 0.46875
vt 0.53125 0.65625
vt 0.87500 0.21875
vt 0.87500 0.03125
vt 0.90625 0.03125
vt 0.90625 0.21875
vt 0.59375 0.62500
vt 0.59375 0.46875
vt 0.62500 0.46875
vt 0.62500 0.62500
vt 0.68750 0.62500
vt 0.68750 0.46875
vt 0.71875 0.46875
vt 0.71875 0.62500
vt 0.78125 0.56250
vt 0.78125 0.46875
vt 0.93750 0.46875
vt 0.93750 0.56250
vt 0.03125 0.81250
vt 0.03125 0.71875
vt 0.18750 0.71875
vt 0.18750 0.81250
vt 0.25000 0.81250
vt 0.25000 0.71875
vt 0.40625 0.71875
vt 0.40625 0.81250
vt 0.46875 0.81250
vt 0.46875 0.71875
vt 0.62500 0.71875
vt 0.62500 0.81250
vt 0.68750 0.81250
vt 0.68750 0.71875
vt 0.71875 0.71875
vt 0.71875 0.81250
vt 0.78125 0.81250
vt 0.78125 0.71875
vt 0.81250 0.71875
vt 0.81250 0.81250
vt 0.31250 0.31250
vt 0.31250 0.28125
vt 0.75000 0.28125
vt 0.75000 0.31250
vt 0.12500 0.40625
vt 0.12500 0.37500
vt 0.56250 0.37500
vt 0.56250 0.40625
vt 0.03125 0.90625
vt 0.03125 0.87500
vt 0.40625 0.87500
vt 0.40625 0.90625
vt 0.46875 0.90625
vt 0.46875 0.87500
vt 0.84375 0.87500
vt 0.84375 0.90625
vt 0.81250 0.31250
vt 0.81250 0.28125
vt 0.84375 0.28125
vt 0.84375 0.31250
vt 0.90625 0.31250
vt 0.90625 0.28125
vt 0.93750 0.28125
vt 0.93750 0.31250
vt 0.62500 0.40625
vt 0.62500 0.37500
vt 0.65625 0.37500
vt 0.65625 0.40625
vt 0.71875 0.40625
vt 0.71875 0.37500
vt 0.75000 0.37500
vt 0.75000 0.40625
vt 0.81250 0.40625
vt 0.81250 0.37500
vt 0.84375 0.37500
vt 0.84375 0.40625
vt 0.90625 0.40625
vt 0.90625 0.37500
vt 0.93750 0.37500
vt 0.93750 0.40625
vt 0.87500 0.75000
vt 0.87500 0.71875
vt 0.90625 0.71875
vt 0.90625 0.75000
vt 0.90625 0.90625
vt 0.90625 0.87500
vt 0.93750 0.87500
vt 0.93750 0.90625

g Box
usemtl fhair_chin_Material
f 1/9/2 2/10/2 3/11/2 4/12/2
f 5/53/2 6/54/2 7/55/2 8/56/2
f 9/73/2 10/74/2 11/75/2 12/76/2
f 13/77/2 14/78/2 15/79/2 16/80/2
f 17/5/1 18/6/1 19/7/1 20/8/1
f 21/49/1 22/50/1 23/51/1 24/52/1
f 25/89/1 26/90/1 27/91/1 28/92/1
f 29/93/1 30/94/1 31/95/1 32/96/1
f 33/13/3 3/14/3 18/15/3 34/16/3
f 4/37/3 33/38/3 22/39/3 21/40/3
f 8/41/3 7/42/3 34/43/3 17/44/3
f 12/57/3 11/58/3 30/59/3 29/60/3
f 16/69/3 15/70/3 26/71/3 25/72/3
f 35/17/4 19/18/4 2/19/4 36/20/4
f 24/33/4 23/34/4 36/35/4 1/36/4
f 20/45/4 35/46/4 6/47/4 5/48/4
f 32/61/4 31/62/4 10/63/4 9/64/4
f 28/65/4 27/66/4 14/67/4 13/68/4
f 4/25/5 21/26/5 24/27/5 1/28/5
f 22/21/5 7/22/5 6/23/5 23/24/5
f 8/29/5 17/30/5 20/31/5 5/32/5
f 26/1/6 15/2/6 14/3/6 27/4/6
f 12/101/6 3/102/6 2/103/6 9/104/6
f 16/97/6 11/98/6 10/99/6 13/100/6
f 30/85/6 25/86/6 28/87/6 31/88/6
f 18/81/6 29/82/6 32/83/6 19/84/6
