# This file was created with Minddesk Qubicle 3.0
# Get Qubicle at www.getqubicle.com

mtllib fhair_goatee.mtl

vn 0.0 0.0 1.0
vn 0.0 0.0 -1.0
vn -1.0 0.0 0.0
vn 1.0 0.0 0.0
vn 0.0 1.0 0.0
vn 0.0 -1.0 0.0

v -9.00000 35.00000 -8.00000
v -9.00000 24.00000 -8.00000
v -10.00000 24.00000 -8.00000
v -10.00000 35.00000 -8.00000
v -9.00000 33.00000 3.00000
v -9.00000 30.00000 3.00000
v -10.00000 30.00000 3.00000
v -10.00000 33.00000 3.00000
v -9.00000 24.00000 -7.00000
v -9.00000 23.00000 -7.00000
v -10.00000 23.00000 -7.00000
v -10.00000 24.00000 -7.00000
v -9.00000 36.00000 -7.00000
v -9.00000 35.00000 -7.00000
v -10.00000 35.00000 -7.00000
v -10.00000 36.00000 -7.00000
v -9.00000 23.00000 -6.00000
v -9.00000 22.00000 -6.00000
v -10.00000 22.00000 -6.00000
v -10.00000 23.00000 -6.00000
v -9.00000 37.00000 -6.00000
v -9.00000 36.00000 -6.00000
v -10.00000 36.00000 -6.00000
v -10.00000 37.00000 -6.00000
v -9.00000 38.00000 -5.00000
v -9.00000 37.00000 -5.00000
v -10.00000 37.00000 -5.00000
v -10.00000 38.00000 -5.00000
v -10.00000 35.00000 8.00000
v -10.00000 24.00000 8.00000
v -9.00000 24.00000 8.00000
v -9.00000 35.00000 8.00000
v -10.00000 33.00000 -3.00000
v -10.00000 30.00000 -3.00000
v -9.00000 30.00000 -3.00000
v -9.00000 33.00000 -3.00000
v -10.00000 38.00000 5.00000
v -10.00000 37.00000 5.00000
v -9.00000 37.00000 5.00000
v -9.00000 38.00000 5.00000
v -10.00000 23.00000 6.00000
v -10.00000 22.00000 6.00000
v -9.00000 22.00000 6.00000
v -9.00000 23.00000 6.00000
v -10.00000 37.00000 6.00000
v -10.00000 36.00000 6.00000
v -9.00000 36.00000 6.00000
v -9.00000 37.00000 6.00000
v -10.00000 24.00000 7.00000
v -10.00000 23.00000 7.00000
v -9.00000 23.00000 7.00000
v -9.00000 24.00000 7.00000
v -10.00000 36.00000 7.00000
v -10.00000 35.00000 7.00000
v -9.00000 35.00000 7.00000
v -9.00000 36.00000 7.00000
v -10.00000 30.00000 -8.00000
v -10.00000 30.00000 8.00000
v -10.00000 33.00000 -8.00000
v -10.00000 33.00000 8.00000
v -9.00000 30.00000 8.00000
v -9.00000 30.00000 -8.00000
v -9.00000 33.00000 -8.00000
v -9.00000 33.00000 8.00000

vt 0.01563 0.40625
vt 0.01563 0.03125
vt 0.03125 0.03125
vt 0.03125 0.40625
vt 0.06250 0.37500
vt 0.06250 0.03125
vt 0.07813 0.03125
vt 0.07813 0.37500
vt 0.10938 0.37500
vt 0.10938 0.03125
vt 0.12500 0.03125
vt 0.12500 0.37500
vt 0.15625 0.34375
vt 0.15625 0.03125
vt 0.17188 0.03125
vt 0.17188 0.34375
vt 0.20313 0.21875
vt 0.20313 0.03125
vt 0.45313 0.03125
vt 0.45313 0.21875
vt 0.48438 0.21875
vt 0.48438 0.03125
vt 0.73438 0.03125
vt 0.73438 0.21875
vt 0.76563 0.21875
vt 0.76563 0.03125
vt 0.78125 0.03125
vt 0.78125 0.21875
vt 0.81250 0.21875
vt 0.81250 0.03125
vt 0.82813 0.03125
vt 0.82813 0.21875
vt 0.85938 0.12500
vt 0.85938 0.03125
vt 0.93750 0.03125
vt 0.93750 0.12500
vt 0.01563 0.56250
vt 0.01563 0.46875
vt 0.09375 0.46875
vt 0.09375 0.56250
vt 0.12500 0.56250
vt 0.12500 0.46875
vt 0.20313 0.46875
vt 0.20313 0.56250
vt 0.23438 0.56250
vt 0.23438 0.46875
vt 0.31250 0.46875
vt 0.31250 0.56250
vt 0.96875 0.12500
vt 0.96875 0.03125
vt 0.98438 0.03125
vt 0.98438 0.12500
vt 0.34375 0.56250
vt 0.34375 0.46875
vt 0.35938 0.46875
vt 0.35938 0.56250
vt 0.20313 0.34375
vt 0.20313 0.28125
vt 0.45313 0.28125
vt 0.45313 0.34375
vt 0.48438 0.34375
vt 0.48438 0.28125
vt 0.73438 0.28125
vt 0.73438 0.34375
vt 0.76563 0.31250
vt 0.76563 0.28125
vt 0.98438 0.28125
vt 0.98438 0.31250
vt 0.39063 0.50000
vt 0.39063 0.46875
vt 0.60938 0.46875
vt 0.60938 0.50000
vt 0.64063 0.50000
vt 0.64063 0.46875
vt 0.85938 0.46875
vt 0.85938 0.50000
vt 0.01563 0.65625
vt 0.01563 0.62500
vt 0.23438 0.62500
vt 0.23438 0.65625
vt 0.26563 0.65625
vt 0.26563 0.62500
vt 0.45313 0.62500
vt 0.45313 0.65625
vt 0.48438 0.65625
vt 0.48438 0.62500
vt 0.67188 0.62500
vt 0.67188 0.65625
vt 0.70313 0.65625
vt 0.70313 0.62500
vt 0.89063 0.62500
vt 0.89063 0.65625
vt 0.01563 0.75000
vt 0.01563 0.71875
vt 0.20313 0.71875
vt 0.20313 0.75000
vt 0.23438 0.75000
vt 0.23438 0.71875
vt 0.39063 0.71875
vt 0.39063 0.75000
vt 0.42188 0.75000
vt 0.42188 0.71875
vt 0.57813 0.71875
vt 0.57813 0.75000
vt 0.85938 0.21875
vt 0.85938 0.18750
vt 0.87500 0.18750
vt 0.87500 0.21875
vt 0.90625 0.21875
vt 0.90625 0.18750
vt 0.92188 0.18750
vt 0.92188 0.21875
vt 0.95313 0.21875
vt 0.95313 0.18750
vt 0.96875 0.18750
vt 0.96875 0.21875
vt 0.89063 0.50000
vt 0.89063 0.46875
vt 0.90625 0.46875
vt 0.90625 0.50000
vt 0.93750 0.50000
vt 0.93750 0.46875
vt 0.95313 0.46875
vt 0.95313 0.50000
vt 0.92188 0.65625
vt 0.92188 0.62500
vt 0.93750 0.62500
vt 0.93750 0.65625
vt 0.96875 0.65625
vt 0.96875 0.62500
vt 0.98438 0.62500
vt 0.98438 0.65625
vt 0.60938 0.75000
vt 0.60938 0.71875
vt 0.62500 0.71875
vt 0.62500 0.75000
vt 0.65625 0.75000
vt 0.65625 0.71875
vt 0.67188 0.71875
vt 0.67188 0.75000
vt 0.70313 0.75000
vt 0.70313 0.71875
vt 0.71875 0.71875
vt 0.71875 0.75000
vt 0.75000 0.75000
vt 0.75000 0.71875
vt 0.76563 0.71875
vt 0.76563 0.75000
vt 0.79688 0.75000
vt 0.79688 0.71875
vt 0.81250 0.71875
vt 0.81250 0.75000
vt 0.84375 0.75000
vt 0.84375 0.71875
vt 0.85938 0.71875
vt 0.85938 0.75000
vt 0.89063 0.75000
vt 0.89063 0.71875
vt 0.90625 0.71875
vt 0.90625 0.75000
vt 0.93750 0.75000
vt 0.93750 0.71875
vt 0.95313 0.71875
vt 0.95313 0.75000
vt 0.01563 0.84375
vt 0.01563 0.81250
vt 0.03125 0.81250
vt 0.03125 0.84375
vt 0.06250 0.84375
vt 0.06250 0.81250
vt 0.07813 0.81250
vt 0.07813 0.84375
vt 0.10938 0.84375
vt 0.10938 0.81250
vt 0.12500 0.81250
vt 0.12500 0.84375
vt 0.15625 0.84375
vt 0.15625 0.81250
vt 0.17188 0.81250
vt 0.17188 0.84375
vt 0.20313 0.84375
vt 0.20313 0.81250
vt 0.21875 0.81250
vt 0.21875 0.84375

g Box
usemtl fhair_goatee_Material
f 1/9/2 2/10/2 3/11/2 4/12/2
f 5/49/2 6/50/2 7/51/2 8/52/2
f 9/133/2 10/134/2 11/135/2 12/136/2
f 13/141/2 14/142/2 15/143/2 16/144/2
f 17/137/2 18/138/2 19/139/2 20/140/2
f 21/109/2 22/110/2 23/111/2 24/112/2
f 25/105/2 26/106/2 27/107/2 28/108/2
f 29/5/1 30/6/1 31/7/1 32/8/1
f 33/53/1 34/54/1 35/55/1 36/56/1
f 37/117/1 38/118/1 39/119/1 40/120/1
f 41/169/1 42/170/1 43/171/1 44/172/1
f 45/165/1 46/166/1 47/167/1 48/168/1
f 49/173/1 50/174/1 51/175/1 52/176/1
f 53/181/1 54/182/1 55/183/1 56/184/1
f 57/17/3 3/18/3 30/19/3 58/20/3
f 59/41/3 57/42/3 34/43/3 33/44/3
f 8/45/3 7/46/3 58/47/3 60/48/3
f 4/57/3 59/58/3 60/59/3 29/60/3
f 12/77/3 11/78/3 50/79/3 49/80/3
f 16/73/3 15/74/3 54/75/3 53/76/3
f 20/85/3 19/86/3 42/87/3 41/88/3
f 24/81/3 23/82/3 46/83/3 45/84/3
f 28/101/3 27/102/3 38/103/3 37/104/3
f 61/21/4 31/22/4 2/23/4 62/24/4
f 36/37/4 35/38/4 62/39/4 63/40/4
f 64/33/4 61/34/4 6/35/4 5/36/4
f 32/61/4 64/62/4 63/63/4 1/64/4
f 52/65/4 51/66/4 10/67/4 9/68/4
f 56/69/4 55/70/4 14/71/4 13/72/4
f 44/93/4 43/94/4 18/95/4 17/96/4
f 48/89/4 47/90/4 22/91/4 21/92/4
f 40/97/4 39/98/4 26/99/4 25/100/4
f 28/13/5 37/14/5 40/15/5 25/16/5
f 34/25/5 7/26/5 6/27/5 35/28/5
f 4/157/5 15/158/5 14/159/5 1/160/5
f 16/161/5 23/162/5 22/163/5 13/164/5
f 24/153/5 27/154/5 26/155/5 21/156/5
f 38/145/5 45/146/5 48/147/5 39/148/5
f 46/149/5 53/150/5 56/151/5 47/152/5
f 54/177/5 29/178/5 32/179/5 55/180/5
f 42/1/6 19/2/6 18/3/6 43/4/6
f 8/29/6 33/30/6 36/31/6 5/32/6
f 12/121/6 3/122/6 2/123/6 9/124/6
f 20/113/6 11/114/6 10/115/6 17/116/6
f 50/125/6 41/126/6 44/127/6 51/128/6
f 30/129/6 49/130/6 52/131/6 31/132/6
