# This file was created with Minddesk Qubicle 3.0
# Get Qubicle at www.getqubicle.com

mtllib weapon_sword_short.mtl

vn 0.0 0.0 1.0
vn 0.0 0.0 -1.0
vn -1.0 0.0 0.0
vn 1.0 0.0 0.0
vn 0.0 1.0 0.0
vn 0.0 -1.0 0.0

v 0.00000 49.00000 -2.00000
v 0.00000 35.00000 -2.00000
v -1.00000 35.00000 -2.00000
v -1.00000 49.00000 -2.00000
v -1.00000 49.00000 -1.00000
v -1.00000 36.00000 -1.00000
v -2.00000 36.00000 -1.00000
v -2.00000 49.00000 -1.00000
v 1.00000 49.00000 -1.00000
v 1.00000 36.00000 -1.00000
v 0.00000 36.00000 -1.00000
v 0.00000 49.00000 -1.00000
v 1.00000 57.00000 -1.00000
v 1.00000 50.00000 -1.00000
v -2.00000 50.00000 -1.00000
v -2.00000 57.00000 -1.00000
v 0.00000 35.00000 -1.00000
v 0.00000 27.00000 -1.00000
v -1.00000 27.00000 -1.00000
v -1.00000 35.00000 -1.00000
v -1.00000 36.00000 0.00000
v -1.00000 28.00000 0.00000
v -2.00000 28.00000 0.00000
v -2.00000 36.00000 0.00000
v 0.00000 27.00000 0.00000
v 0.00000 22.00000 0.00000
v -1.00000 22.00000 0.00000
v -1.00000 27.00000 0.00000
v 1.00000 36.00000 0.00000
v 1.00000 28.00000 0.00000
v 0.00000 28.00000 0.00000
v 0.00000 36.00000 0.00000
v 2.00000 60.00000 -2.00000
v 2.00000 57.00000 -2.00000
v -3.00000 57.00000 -2.00000
v -3.00000 60.00000 -2.00000
v 1.00000 50.00000 -5.00000
v 1.00000 49.00000 -5.00000
v -2.00000 49.00000 -5.00000
v -2.00000 50.00000 -5.00000
v -2.00000 49.00000 2.00000
v -2.00000 36.00000 2.00000
v -1.00000 36.00000 2.00000
v -1.00000 49.00000 2.00000
v 0.00000 49.00000 2.00000
v 0.00000 36.00000 2.00000
v 1.00000 36.00000 2.00000
v 1.00000 49.00000 2.00000
v -1.00000 49.00000 3.00000
v -1.00000 35.00000 3.00000
v 0.00000 35.00000 3.00000
v 0.00000 49.00000 3.00000
v -2.00000 57.00000 2.00000
v -2.00000 50.00000 2.00000
v 1.00000 50.00000 2.00000
v 1.00000 57.00000 2.00000
v -2.00000 36.00000 1.00000
v -2.00000 28.00000 1.00000
v -1.00000 28.00000 1.00000
v -1.00000 36.00000 1.00000
v -1.00000 27.00000 1.00000
v -1.00000 22.00000 1.00000
v 0.00000 22.00000 1.00000
v 0.00000 27.00000 1.00000
v 0.00000 36.00000 1.00000
v 0.00000 28.00000 1.00000
v 1.00000 28.00000 1.00000
v 1.00000 36.00000 1.00000
v -1.00000 35.00000 2.00000
v -1.00000 27.00000 2.00000
v 0.00000 27.00000 2.00000
v 0.00000 35.00000 2.00000
v -3.00000 60.00000 3.00000
v -3.00000 57.00000 3.00000
v 2.00000 57.00000 3.00000
v 2.00000 60.00000 3.00000
v -2.00000 50.00000 6.00000
v -2.00000 49.00000 6.00000
v 1.00000 49.00000 6.00000
v 1.00000 50.00000 6.00000
v -1.00000 36.00000 -2.00000
v -1.00000 36.00000 3.00000
v -1.00000 28.00000 -1.00000
v -1.00000 35.00000 0.00000
v -1.00000 35.00000 1.00000
v -1.00000 28.00000 2.00000
v 0.00000 36.00000 -2.00000
v 0.00000 36.00000 3.00000
v 0.00000 35.00000 0.00000
v 0.00000 28.00000 -1.00000
v 0.00000 28.00000 2.00000
v 0.00000 35.00000 1.00000
v -2.00000 49.00000 -2.00000
v 1.00000 49.00000 -2.00000
v -2.00000 49.00000 3.00000
v 1.00000 49.00000 3.00000
v -3.00000 57.00000 2.00000
v -3.00000 57.00000 -1.00000
v 2.00000 57.00000 -1.00000
v 2.00000 57.00000 2.00000

vt 0.01563 0.23438
vt 0.01563 0.01563
vt 0.03125 0.01563
vt 0.03125 0.23438
vt 0.06250 0.23438
vt 0.06250 0.01563
vt 0.07813 0.01563
vt 0.07813 0.23438
vt 0.10938 0.21875
vt 0.10938 0.01563
vt 0.15625 0.01563
vt 0.15625 0.21875
vt 0.18750 0.21875
vt 0.18750 0.01563
vt 0.23438 0.01563
vt 0.23438 0.21875
vt 0.26563 0.21875
vt 0.26563 0.01563
vt 0.28125 0.01563
vt 0.28125 0.21875
vt 0.31250 0.21875
vt 0.31250 0.01563
vt 0.32813 0.01563
vt 0.32813 0.21875
vt 0.35938 0.21875
vt 0.35938 0.01563
vt 0.37500 0.01563
vt 0.37500 0.21875
vt 0.40625 0.21875
vt 0.40625 0.01563
vt 0.42188 0.01563
vt 0.42188 0.21875
vt 0.45313 0.21875
vt 0.45313 0.01563
vt 0.46875 0.01563
vt 0.46875 0.21875
vt 0.50000 0.21875
vt 0.50000 0.01563
vt 0.51563 0.01563
vt 0.51563 0.21875
vt 0.54688 0.21875
vt 0.54688 0.01563
vt 0.56250 0.01563
vt 0.56250 0.21875
vt 0.59375 0.21875
vt 0.59375 0.01563
vt 0.60938 0.01563
vt 0.60938 0.21875
vt 0.64063 0.14063
vt 0.64063 0.01563
vt 0.65625 0.01563
vt 0.65625 0.14063
vt 0.68750 0.14063
vt 0.68750 0.01563
vt 0.70313 0.01563
vt 0.70313 0.14063
vt 0.73438 0.14063
vt 0.73438 0.01563
vt 0.75000 0.01563
vt 0.75000 0.14063
vt 0.78125 0.14063
vt 0.78125 0.01563
vt 0.79688 0.01563
vt 0.79688 0.14063
vt 0.82813 0.14063
vt 0.82813 0.01563
vt 0.84375 0.01563
vt 0.84375 0.14063
vt 0.87500 0.14063
vt 0.87500 0.01563
vt 0.89063 0.01563
vt 0.89063 0.14063
vt 0.92188 0.14063
vt 0.92188 0.01563
vt 0.93750 0.01563
vt 0.93750 0.14063
vt 0.96875 0.14063
vt 0.96875 0.01563
vt 0.98438 0.01563
vt 0.98438 0.14063
vt 0.01563 0.37500
vt 0.01563 0.26563
vt 0.06250 0.26563
vt 0.06250 0.37500
vt 0.09375 0.37500
vt 0.09375 0.26563
vt 0.14063 0.26563
vt 0.14063 0.37500
vt 0.17188 0.37500
vt 0.17188 0.26563
vt 0.21875 0.26563
vt 0.21875 0.37500
vt 0.25000 0.37500
vt 0.25000 0.26563
vt 0.29688 0.26563
vt 0.29688 0.37500
vt 0.32813 0.37500
vt 0.32813 0.26563
vt 0.34375 0.26563
vt 0.34375 0.37500
vt 0.37500 0.37500
vt 0.37500 0.26563
vt 0.39063 0.26563
vt 0.39063 0.37500
vt 0.42188 0.37500
vt 0.42188 0.26563
vt 0.43750 0.26563
vt 0.43750 0.37500
vt 0.46875 0.37500
vt 0.46875 0.26563
vt 0.48438 0.26563
vt 0.48438 0.37500
vt 0.51563 0.34375
vt 0.51563 0.26563
vt 0.59375 0.26563
vt 0.59375 0.34375
vt 0.62500 0.34375
vt 0.62500 0.26563
vt 0.64063 0.26563
vt 0.64063 0.34375
vt 0.67188 0.34375
vt 0.67188 0.26563
vt 0.68750 0.26563
vt 0.68750 0.34375
vt 0.71875 0.34375
vt 0.71875 0.26563
vt 0.73438 0.26563
vt 0.73438 0.34375
vt 0.76563 0.34375
vt 0.76563 0.26563
vt 0.78125 0.26563
vt 0.78125 0.34375
vt 0.81250 0.32813
vt 0.81250 0.26563
vt 0.85938 0.26563
vt 0.85938 0.32813
vt 0.89063 0.32813
vt 0.89063 0.26563
vt 0.93750 0.26563
vt 0.93750 0.32813
vt 0.64063 0.21875
vt 0.64063 0.17188
vt 0.71875 0.17188
vt 0.71875 0.21875
vt 0.75000 0.21875
vt 0.75000 0.17188
vt 0.82813 0.17188
vt 0.82813 0.21875
vt 0.85938 0.21875
vt 0.85938 0.17188
vt 0.93750 0.17188
vt 0.93750 0.21875
vt 0.01563 0.45313
vt 0.01563 0.40625
vt 0.09375 0.40625
vt 0.09375 0.45313
vt 0.12500 0.45313
vt 0.12500 0.40625
vt 0.17188 0.40625
vt 0.17188 0.45313
vt 0.20313 0.45313
vt 0.20313 0.40625
vt 0.25000 0.40625
vt 0.25000 0.45313
vt 0.96875 0.21875
vt 0.96875 0.17188
vt 0.98438 0.17188
vt 0.98438 0.21875
vt 0.96875 0.31250
vt 0.96875 0.26563
vt 0.98438 0.26563
vt 0.98438 0.31250
vt 0.28125 0.42188
vt 0.28125 0.40625
vt 0.45313 0.40625
vt 0.45313 0.42188
vt 0.48438 0.42188
vt 0.48438 0.40625
vt 0.65625 0.40625
vt 0.65625 0.42188
vt 0.68750 0.42188
vt 0.68750 0.40625
vt 0.76563 0.40625
vt 0.76563 0.42188
vt 0.79688 0.42188
vt 0.79688 0.40625
vt 0.87500 0.40625
vt 0.87500 0.42188
vt 0.90625 0.42188
vt 0.90625 0.40625
vt 0.95313 0.40625
vt 0.95313 0.42188
vt 0.01563 0.50000
vt 0.01563 0.48438
vt 0.06250 0.48438
vt 0.06250 0.50000
vt 0.09375 0.50000
vt 0.09375 0.48438
vt 0.14063 0.48438
vt 0.14063 0.50000
vt 0.17188 0.50000
vt 0.17188 0.48438
vt 0.21875 0.48438
vt 0.21875 0.50000
vt 0.25000 0.50000
vt 0.25000 0.48438
vt 0.28125 0.48438
vt 0.28125 0.50000
vt 0.31250 0.50000
vt 0.31250 0.48438
vt 0.34375 0.48438
vt 0.34375 0.50000
vt 0.37500 0.50000
vt 0.37500 0.48438
vt 0.40625 0.48438
vt 0.40625 0.50000
vt 0.43750 0.50000
vt 0.43750 0.48438
vt 0.46875 0.48438
vt 0.46875 0.50000
vt 0.50000 0.50000
vt 0.50000 0.48438
vt 0.51563 0.48438
vt 0.51563 0.50000
vt 0.54688 0.50000
vt 0.54688 0.48438
vt 0.56250 0.48438
vt 0.56250 0.50000
vt 0.59375 0.50000
vt 0.59375 0.48438
vt 0.60938 0.48438
vt 0.60938 0.50000
vt 0.64063 0.50000
vt 0.64063 0.48438
vt 0.65625 0.48438
vt 0.65625 0.50000
vt 0.68750 0.50000
vt 0.68750 0.48438
vt 0.70313 0.48438
vt 0.70313 0.50000
vt 0.73438 0.50000
vt 0.73438 0.48438
vt 0.75000 0.48438
vt 0.75000 0.50000
vt 0.78125 0.50000
vt 0.78125 0.48438
vt 0.79688 0.48438
vt 0.79688 0.50000
vt 0.82813 0.50000
vt 0.82813 0.48438
vt 0.84375 0.48438
vt 0.84375 0.50000
vt 0.87500 0.50000
vt 0.87500 0.48438
vt 0.89063 0.48438
vt 0.89063 0.50000
vt 0.92188 0.50000
vt 0.92188 0.48438
vt 0.93750 0.48438
vt 0.93750 0.50000
vt 0.96875 0.50000
vt 0.96875 0.48438
vt 0.98438 0.48438
vt 0.98438 0.50000
vt 0.01563 0.54688
vt 0.01563 0.53125
vt 0.03125 0.53125
vt 0.03125 0.54688
vt 0.06250 0.54688
vt 0.06250 0.53125
vt 0.07813 0.53125
vt 0.07813 0.54688
vt 0.10938 0.54688
vt 0.10938 0.53125
vt 0.12500 0.53125
vt 0.12500 0.54688
vt 0.15625 0.54688
vt 0.15625 0.53125
vt 0.17188 0.53125
vt 0.17188 0.54688

g weapon_shortsword
usemtl weapon_sword_short_Material
f 1/5/2 2/6/2 3/7/2 4/8/2
f 5/17/2 6/18/2 7/19/2 8/20/2
f 9/45/2 10/46/2 11/47/2 12/48/2
f 13/81/2 14/82/2 15/83/2 16/84/2
f 17/69/2 18/70/2 19/71/2 20/72/2
f 21/73/2 22/74/2 23/75/2 24/76/2
f 25/125/2 26/126/2 27/127/2 28/128/2
f 29/77/2 30/78/2 31/79/2 32/80/2
f 33/149/2 34/150/2 35/151/2 36/152/2
f 37/201/2 38/202/2 39/203/2 40/204/2
f 41/33/1 42/34/1 43/35/1 44/36/1
f 45/37/1 46/38/1 47/39/1 48/40/1
f 49/1/1 50/2/1 51/3/1 52/4/1
f 53/93/1 54/94/1 55/95/1 56/96/1
f 57/53/1 58/54/1 59/55/1 60/56/1
f 61/129/1 62/130/1 63/131/1 64/132/1
f 65/49/1 66/50/1 67/51/1 68/52/1
f 69/57/1 70/58/1 71/59/1 72/60/1
f 73/145/1 74/146/1 75/147/1 76/148/1
f 77/189/1 78/190/1 79/191/1 80/192/1
f 8/9/3 7/10/3 42/11/3 41/12/3
f 4/41/3 81/42/3 6/43/3 5/44/3
f 44/21/3 43/22/3 82/23/3 49/24/3
f 16/85/3 15/86/3 54/87/3 53/88/3
f 20/105/3 83/106/3 22/107/3 84/108/3
f 24/61/3 23/62/3 58/63/3 57/64/3
f 28/121/3 27/122/3 62/123/3 61/124/3
f 85/109/3 59/110/3 86/111/3 69/112/3
f 36/141/3 35/142/3 74/143/3 73/144/3
f 40/173/3 39/174/3 78/175/3 77/176/3
f 83/197/3 19/198/3 70/199/3 86/200/3
f 81/209/3 3/210/3 84/211/3 21/212/3
f 60/213/3 85/214/3 50/215/3 82/216/3
f 48/13/4 47/14/4 10/15/4 9/16/4
f 12/29/4 11/30/4 87/31/4 1/32/4
f 52/25/4 88/26/4 46/27/4 45/28/4
f 56/89/4 55/90/4 14/91/4 13/92/4
f 89/97/4 31/98/4 90/99/4 17/100/4
f 64/117/4 63/118/4 26/119/4 25/120/4
f 68/65/4 67/66/4 30/67/4 29/68/4
f 72/101/4 91/102/4 66/103/4 92/104/4
f 76/153/4 75/154/4 34/155/4 33/156/4
f 80/177/4 79/178/4 38/179/4 37/180/4
f 91/193/4 71/194/4 18/195/4 90/196/4
f 32/217/4 89/218/4 2/219/4 87/220/4
f 88/205/4 51/206/4 92/207/4 65/208/4
f 36/113/5 73/114/5 76/115/5 33/116/5
f 40/133/5 15/134/5 14/135/5 37/136/5
f 54/137/5 77/138/5 80/139/5 55/140/5
f 93/157/6 39/158/6 38/159/6 94/160/6
f 78/161/6 95/162/6 96/163/6 79/164/6
f 97/169/6 98/170/6 16/171/6 53/172/6
f 56/165/6 13/166/6 99/167/6 100/168/6
f 98/185/6 35/186/6 34/187/6 99/188/6
f 74/181/6 97/182/6 100/183/6 75/184/6
f 8/225/6 93/226/6 4/227/6 5/228/6
f 20/221/6 3/222/6 2/223/6 17/224/6
f 12/241/6 1/242/6 94/243/6 9/244/6
f 24/265/6 7/266/6 6/267/6 21/268/6
f 28/269/6 19/270/6 18/271/6 25/272/6
f 32/229/6 11/230/6 10/231/6 29/232/6
f 58/249/6 23/250/6 22/251/6 59/252/6
f 62/261/6 27/262/6 26/263/6 63/264/6
f 66/257/6 31/258/6 30/259/6 67/260/6
f 42/253/6 57/254/6 60/255/6 43/256/6
f 70/273/6 61/274/6 64/275/6 71/276/6
f 46/277/6 65/278/6 68/279/6 47/280/6
f 95/245/6 41/246/6 44/247/6 49/248/6
f 50/233/6 69/234/6 72/235/6 51/236/6
f 52/237/6 45/238/6 48/239/6 96/240/6
