# This file was created with Minddesk Qubicle 3.0
# Get Qubicle at www.getqubicle.com

mtllib weapon_sword_great.mtl

vn 0.0 0.0 1.0
vn 0.0 0.0 -1.0
vn -1.0 0.0 0.0
vn 1.0 0.0 0.0
vn 0.0 1.0 0.0
vn 0.0 -1.0 0.0

v 0.00000 41.00000 -2.00000
v 0.00000 8.00000 -2.00000
v -1.00000 8.00000 -2.00000
v -1.00000 41.00000 -2.00000
v -1.00000 41.00000 -1.00000
v -1.00000 8.00000 -1.00000
v -2.00000 8.00000 -1.00000
v -2.00000 41.00000 -1.00000
v 1.00000 41.00000 -1.00000
v 1.00000 8.00000 -1.00000
v 0.00000 8.00000 -1.00000
v 0.00000 41.00000 -1.00000
v 0.00000 44.00000 2.00000
v 0.00000 11.00000 2.00000
v -1.00000 11.00000 2.00000
v -1.00000 44.00000 2.00000
v 1.00000 58.00000 -1.00000
v 1.00000 46.00000 -1.00000
v -2.00000 46.00000 -1.00000
v -2.00000 58.00000 -1.00000
v 0.00000 1.00000 -1.00000
v -1.00000 1.00000 -1.00000
v 2.00000 61.00000 -2.00000
v 2.00000 58.00000 -2.00000
v -3.00000 58.00000 -2.00000
v -3.00000 61.00000 -2.00000
v 0.00000 45.00000 -3.00000
v 0.00000 41.00000 -3.00000
v -1.00000 41.00000 -3.00000
v -1.00000 45.00000 -3.00000
v -1.00000 45.00000 -2.00000
v -2.00000 41.00000 -2.00000
v -2.00000 45.00000 -2.00000
v 1.00000 45.00000 -2.00000
v 1.00000 41.00000 -2.00000
v 0.00000 45.00000 -2.00000
v -1.00000 8.00000 0.00000
v -1.00000 4.00000 0.00000
v -2.00000 4.00000 0.00000
v -2.00000 8.00000 0.00000
v 1.00000 8.00000 0.00000
v 1.00000 4.00000 0.00000
v 0.00000 4.00000 0.00000
v 0.00000 8.00000 0.00000
v 0.00000 11.00000 1.00000
v 0.00000 7.00000 1.00000
v -1.00000 7.00000 1.00000
v -1.00000 11.00000 1.00000
v 1.00000 46.00000 -7.00000
v 1.00000 45.00000 -7.00000
v -2.00000 45.00000 -7.00000
v -2.00000 46.00000 -7.00000
v 0.00000 1.00000 0.00000
v 0.00000 0.00000 0.00000
v -1.00000 0.00000 0.00000
v -1.00000 1.00000 0.00000
v 0.00000 45.00000 3.00000
v 0.00000 44.00000 3.00000
v -1.00000 44.00000 3.00000
v -1.00000 45.00000 3.00000
v -2.00000 41.00000 2.00000
v -2.00000 8.00000 2.00000
v -1.00000 8.00000 2.00000
v -1.00000 41.00000 2.00000
v 0.00000 41.00000 2.00000
v 0.00000 8.00000 2.00000
v 1.00000 8.00000 2.00000
v 1.00000 41.00000 2.00000
v -1.00000 41.00000 3.00000
v -1.00000 8.00000 3.00000
v 0.00000 8.00000 3.00000
v 0.00000 41.00000 3.00000
v -2.00000 58.00000 2.00000
v -2.00000 46.00000 2.00000
v 1.00000 46.00000 2.00000
v 1.00000 58.00000 2.00000
v -1.00000 19.00000 -1.00000
v 0.00000 19.00000 -1.00000
v -1.00000 35.00000 -1.00000
v -1.00000 21.00000 -1.00000
v 0.00000 21.00000 -1.00000
v 0.00000 35.00000 -1.00000
v -1.00000 1.00000 2.00000
v 0.00000 1.00000 2.00000
v -3.00000 61.00000 3.00000
v -3.00000 58.00000 3.00000
v 2.00000 58.00000 3.00000
v 2.00000 61.00000 3.00000
v -1.00000 40.00000 -1.00000
v -1.00000 37.00000 -1.00000
v 0.00000 37.00000 -1.00000
v 0.00000 40.00000 -1.00000
v -2.00000 8.00000 1.00000
v -2.00000 4.00000 1.00000
v -1.00000 4.00000 1.00000
v -1.00000 8.00000 1.00000
v 0.00000 8.00000 1.00000
v 0.00000 4.00000 1.00000
v 1.00000 4.00000 1.00000
v 1.00000 8.00000 1.00000
v -2.00000 45.00000 3.00000
v -2.00000 41.00000 3.00000
v 1.00000 41.00000 3.00000
v 1.00000 45.00000 3.00000
v -1.00000 45.00000 4.00000
v -1.00000 41.00000 4.00000
v 0.00000 41.00000 4.00000
v 0.00000 45.00000 4.00000
v -1.00000 43.00000 -2.00000
v 0.00000 43.00000 -2.00000
v -1.00000 43.00000 -1.00000
v 0.00000 43.00000 -1.00000
v -1.00000 37.00000 0.00000
v -1.00000 35.00000 0.00000
v 0.00000 35.00000 0.00000
v 0.00000 37.00000 0.00000
v -1.00000 21.00000 1.00000
v -1.00000 19.00000 1.00000
v 0.00000 19.00000 1.00000
v 0.00000 21.00000 1.00000
v -2.00000 46.00000 8.00000
v -2.00000 45.00000 8.00000
v 1.00000 45.00000 8.00000
v 1.00000 46.00000 8.00000
v -1.00000 7.00000 0.00000
v 0.00000 7.00000 0.00000
v -1.00000 41.00000 0.00000
v -1.00000 40.00000 0.00000
v 0.00000 40.00000 0.00000
v 0.00000 41.00000 0.00000
v -1.00000 1.00000 1.00000
v -1.00000 0.00000 1.00000
v 0.00000 0.00000 1.00000
v 0.00000 1.00000 1.00000
v 0.00000 21.00000 2.00000
v 0.00000 35.00000 2.00000
v 0.00000 11.00000 -1.00000
v 0.00000 19.00000 2.00000
v -1.00000 4.00000 -1.00000
v -1.00000 4.00000 2.00000
v 0.00000 37.00000 2.00000
v 0.00000 40.00000 2.00000
v 0.00000 43.00000 2.00000
v 0.00000 44.00000 -2.00000
v -1.00000 35.00000 2.00000
v -1.00000 21.00000 2.00000
v -1.00000 19.00000 2.00000
v -1.00000 11.00000 -1.00000
v -1.00000 40.00000 2.00000
v -1.00000 37.00000 2.00000
v 0.00000 4.00000 2.00000
v 0.00000 4.00000 -1.00000
v -1.00000 43.00000 2.00000
v -1.00000 44.00000 -2.00000
v -2.00000 45.00000 -3.00000
v 1.00000 45.00000 -3.00000
v -2.00000 45.00000 4.00000
v 1.00000 45.00000 4.00000
v -3.00000 58.00000 2.00000
v -3.00000 58.00000 -1.00000
v 2.00000 58.00000 -1.00000
v 2.00000 58.00000 2.00000

vt 0.00781 0.53125
vt 0.00781 0.01563
vt 0.03125 0.01563
vt 0.03125 0.53125
vt 0.04688 0.53125
vt 0.04688 0.01563
vt 0.07031 0.01563
vt 0.07031 0.53125
vt 0.08594 0.53125
vt 0.08594 0.01563
vt 0.09375 0.01563
vt 0.09375 0.53125
vt 0.10938 0.53125
vt 0.10938 0.01563
vt 0.11719 0.01563
vt 0.11719 0.53125
vt 0.13281 0.53125
vt 0.13281 0.01563
vt 0.14063 0.01563
vt 0.14063 0.53125
vt 0.15625 0.53125
vt 0.15625 0.01563
vt 0.16406 0.01563
vt 0.16406 0.53125
vt 0.17969 0.53125
vt 0.17969 0.01563
vt 0.18750 0.01563
vt 0.18750 0.53125
vt 0.20313 0.53125
vt 0.20313 0.01563
vt 0.21094 0.01563
vt 0.21094 0.53125
vt 0.22656 0.53125
vt 0.22656 0.01563
vt 0.23438 0.01563
vt 0.23438 0.53125
vt 0.25000 0.53125
vt 0.25000 0.01563
vt 0.25781 0.01563
vt 0.25781 0.53125
vt 0.27344 0.53125
vt 0.27344 0.01563
vt 0.28125 0.01563
vt 0.28125 0.53125
vt 0.29688 0.53125
vt 0.29688 0.01563
vt 0.30469 0.01563
vt 0.30469 0.53125
vt 0.32031 0.53125
vt 0.32031 0.01563
vt 0.32813 0.01563
vt 0.32813 0.53125
vt 0.34375 0.23438
vt 0.34375 0.01563
vt 0.36719 0.01563
vt 0.36719 0.23438
vt 0.38281 0.23438
vt 0.38281 0.01563
vt 0.40625 0.01563
vt 0.40625 0.23438
vt 0.42188 0.23438
vt 0.42188 0.01563
vt 0.42969 0.01563
vt 0.42969 0.23438
vt 0.44531 0.20313
vt 0.44531 0.01563
vt 0.46875 0.01563
vt 0.46875 0.20313
vt 0.48438 0.20313
vt 0.48438 0.01563
vt 0.50781 0.01563
vt 0.50781 0.20313
vt 0.52344 0.20313
vt 0.52344 0.01563
vt 0.54688 0.01563
vt 0.54688 0.20313
vt 0.56250 0.20313
vt 0.56250 0.01563
vt 0.58594 0.01563
vt 0.58594 0.20313
vt 0.60156 0.18750
vt 0.60156 0.01563
vt 0.60938 0.01563
vt 0.60938 0.18750
vt 0.62500 0.14063
vt 0.62500 0.01563
vt 0.64844 0.01563
vt 0.64844 0.14063
vt 0.66406 0.14063
vt 0.66406 0.01563
vt 0.68750 0.01563
vt 0.68750 0.14063
vt 0.70313 0.12500
vt 0.70313 0.01563
vt 0.71094 0.01563
vt 0.71094 0.12500
vt 0.72656 0.12500
vt 0.72656 0.01563
vt 0.73438 0.01563
vt 0.73438 0.12500
vt 0.75000 0.10938
vt 0.75000 0.01563
vt 0.77344 0.01563
vt 0.77344 0.10938
vt 0.78906 0.10938
vt 0.78906 0.01563
vt 0.81250 0.01563
vt 0.81250 0.10938
vt 0.82813 0.09375
vt 0.82813 0.01563
vt 0.86719 0.01563
vt 0.86719 0.09375
vt 0.88281 0.09375
vt 0.88281 0.01563
vt 0.89063 0.01563
vt 0.89063 0.09375
vt 0.90625 0.07813
vt 0.90625 0.01563
vt 0.94531 0.01563
vt 0.94531 0.07813
vt 0.34375 0.32813
vt 0.34375 0.26563
vt 0.38281 0.26563
vt 0.38281 0.32813
vt 0.96094 0.07813
vt 0.96094 0.01563
vt 0.98438 0.01563
vt 0.98438 0.07813
vt 0.39844 0.32813
vt 0.39844 0.26563
vt 0.42188 0.26563
vt 0.42188 0.32813
vt 0.43750 0.32813
vt 0.43750 0.26563
vt 0.44531 0.26563
vt 0.44531 0.32813
vt 0.46094 0.32813
vt 0.46094 0.26563
vt 0.46875 0.26563
vt 0.46875 0.32813
vt 0.48438 0.32813
vt 0.48438 0.26563
vt 0.49219 0.26563
vt 0.49219 0.32813
vt 0.50781 0.32813
vt 0.50781 0.26563
vt 0.51563 0.26563
vt 0.51563 0.32813
vt 0.53125 0.32813
vt 0.53125 0.26563
vt 0.53906 0.26563
vt 0.53906 0.32813
vt 0.55469 0.32813
vt 0.55469 0.26563
vt 0.56250 0.26563
vt 0.56250 0.32813
vt 0.57813 0.32813
vt 0.57813 0.26563
vt 0.58594 0.26563
vt 0.58594 0.32813
vt 0.60156 0.32813
vt 0.60156 0.26563
vt 0.60938 0.26563
vt 0.60938 0.32813
vt 0.62500 0.32813
vt 0.62500 0.26563
vt 0.63281 0.26563
vt 0.63281 0.32813
vt 0.64844 0.32813
vt 0.64844 0.26563
vt 0.65625 0.26563
vt 0.65625 0.32813
vt 0.67188 0.32813
vt 0.67188 0.26563
vt 0.67969 0.26563
vt 0.67969 0.32813
vt 0.69531 0.32813
vt 0.69531 0.26563
vt 0.70313 0.26563
vt 0.70313 0.32813
vt 0.71875 0.32813
vt 0.71875 0.26563
vt 0.72656 0.26563
vt 0.72656 0.32813
vt 0.74219 0.32813
vt 0.74219 0.26563
vt 0.75000 0.26563
vt 0.75000 0.32813
vt 0.76563 0.32813
vt 0.76563 0.26563
vt 0.77344 0.26563
vt 0.77344 0.32813
vt 0.78906 0.32813
vt 0.78906 0.26563
vt 0.79688 0.26563
vt 0.79688 0.32813
vt 0.81250 0.32813
vt 0.81250 0.26563
vt 0.82031 0.26563
vt 0.82031 0.32813
vt 0.83594 0.32813
vt 0.83594 0.26563
vt 0.84375 0.26563
vt 0.84375 0.32813
vt 0.85938 0.32813
vt 0.85938 0.26563
vt 0.86719 0.26563
vt 0.86719 0.32813
vt 0.88281 0.32813
vt 0.88281 0.26563
vt 0.89063 0.26563
vt 0.89063 0.32813
vt 0.90625 0.32813
vt 0.90625 0.26563
vt 0.91406 0.26563
vt 0.91406 0.32813
vt 0.92969 0.31250
vt 0.92969 0.26563
vt 0.96875 0.26563
vt 0.96875 0.31250
vt 0.34375 0.40625
vt 0.34375 0.35938
vt 0.38281 0.35938
vt 0.38281 0.40625
vt 0.39844 0.40625
vt 0.39844 0.35938
vt 0.43750 0.35938
vt 0.43750 0.40625
vt 0.45313 0.40625
vt 0.45313 0.35938
vt 0.49219 0.35938
vt 0.49219 0.40625
vt 0.50781 0.40625
vt 0.50781 0.35938
vt 0.53125 0.35938
vt 0.53125 0.40625
vt 0.54688 0.40625
vt 0.54688 0.35938
vt 0.57031 0.35938
vt 0.57031 0.40625
vt 0.58594 0.40625
vt 0.58594 0.35938
vt 0.60938 0.35938
vt 0.60938 0.40625
vt 0.62500 0.40625
vt 0.62500 0.35938
vt 0.64844 0.35938
vt 0.64844 0.40625
vt 0.66406 0.40625
vt 0.66406 0.35938
vt 0.67969 0.35938
vt 0.67969 0.40625
vt 0.69531 0.40625
vt 0.69531 0.35938
vt 0.71094 0.35938
vt 0.71094 0.40625
vt 0.98438 0.31250
vt 0.98438 0.26563
vt 0.99219 0.26563
vt 0.99219 0.31250
vt 0.72656 0.40625
vt 0.72656 0.35938
vt 0.73438 0.35938
vt 0.73438 0.40625
vt 0.75000 0.40625
vt 0.75000 0.35938
vt 0.75781 0.35938
vt 0.75781 0.40625
vt 0.77344 0.39063
vt 0.77344 0.35938
vt 0.79688 0.35938
vt 0.79688 0.39063
vt 0.81250 0.39063
vt 0.81250 0.35938
vt 0.83594 0.35938
vt 0.83594 0.39063
vt 0.85156 0.39063
vt 0.85156 0.35938
vt 0.86719 0.35938
vt 0.86719 0.39063
vt 0.88281 0.39063
vt 0.88281 0.35938
vt 0.89844 0.35938
vt 0.89844 0.39063
vt 0.91406 0.39063
vt 0.91406 0.35938
vt 0.92188 0.35938
vt 0.92188 0.39063
vt 0.93750 0.39063
vt 0.93750 0.35938
vt 0.94531 0.35938
vt 0.94531 0.39063
vt 0.96094 0.39063
vt 0.96094 0.35938
vt 0.96875 0.35938
vt 0.96875 0.39063
vt 0.98438 0.39063
vt 0.98438 0.35938
vt 0.99219 0.35938
vt 0.99219 0.39063
vt 0.34375 0.46875
vt 0.34375 0.43750
vt 0.35156 0.43750
vt 0.35156 0.46875
vt 0.36719 0.46875
vt 0.36719 0.43750
vt 0.37500 0.43750
vt 0.37500 0.46875
vt 0.39063 0.46875
vt 0.39063 0.43750
vt 0.39844 0.43750
vt 0.39844 0.46875
vt 0.41406 0.46875
vt 0.41406 0.43750
vt 0.42188 0.43750
vt 0.42188 0.46875
vt 0.62500 0.18750
vt 0.62500 0.17188
vt 0.74219 0.17188
vt 0.74219 0.18750
vt 0.75781 0.18750
vt 0.75781 0.17188
vt 0.87500 0.17188
vt 0.87500 0.18750
vt 0.89063 0.18750
vt 0.89063 0.17188
vt 0.92969 0.17188
vt 0.92969 0.18750
vt 0.94531 0.18750
vt 0.94531 0.17188
vt 0.98438 0.17188
vt 0.98438 0.18750
vt 0.43750 0.45313
vt 0.43750 0.43750
vt 0.47656 0.43750
vt 0.47656 0.45313
vt 0.49219 0.45313
vt 0.49219 0.43750
vt 0.53125 0.43750
vt 0.53125 0.45313
vt 0.54688 0.45313
vt 0.54688 0.43750
vt 0.57813 0.43750
vt 0.57813 0.45313
vt 0.59375 0.45313
vt 0.59375 0.43750
vt 0.62500 0.43750
vt 0.62500 0.45313
vt 0.64063 0.45313
vt 0.64063 0.43750
vt 0.66406 0.43750
vt 0.66406 0.45313
vt 0.67969 0.45313
vt 0.67969 0.43750
vt 0.70313 0.43750
vt 0.70313 0.45313
vt 0.71875 0.45313
vt 0.71875 0.43750
vt 0.73438 0.43750
vt 0.73438 0.45313
vt 0.75000 0.45313
vt 0.75000 0.43750
vt 0.76563 0.43750
vt 0.76563 0.45313
vt 0.78125 0.45313
vt 0.78125 0.43750
vt 0.78906 0.43750
vt 0.78906 0.45313
vt 0.80469 0.45313
vt 0.80469 0.43750
vt 0.81250 0.43750
vt 0.81250 0.45313
vt 0.82813 0.45313
vt 0.82813 0.43750
vt 0.83594 0.43750
vt 0.83594 0.45313
vt 0.85156 0.45313
vt 0.85156 0.43750
vt 0.85938 0.43750
vt 0.85938 0.45313
vt 0.87500 0.45313
vt 0.87500 0.43750
vt 0.88281 0.43750
vt 0.88281 0.45313
vt 0.89844 0.45313
vt 0.89844 0.43750
vt 0.90625 0.43750
vt 0.90625 0.45313
vt 0.92188 0.45313
vt 0.92188 0.43750
vt 0.92969 0.43750
vt 0.92969 0.45313
vt 0.94531 0.45313
vt 0.94531 0.43750
vt 0.95313 0.43750
vt 0.95313 0.45313
vt 0.96875 0.45313
vt 0.96875 0.43750
vt 0.97656 0.43750
vt 0.97656 0.45313
vt 0.34375 0.51563
vt 0.34375 0.50000
vt 0.35156 0.50000
vt 0.35156 0.51563
vt 0.36719 0.51563
vt 0.36719 0.50000
vt 0.37500 0.50000
vt 0.37500 0.51563
vt 0.39063 0.51563
vt 0.39063 0.50000
vt 0.39844 0.50000
vt 0.39844 0.51563
vt 0.41406 0.51563
vt 0.41406 0.50000
vt 0.42188 0.50000
vt 0.42188 0.51563
vt 0.43750 0.51563
vt 0.43750 0.50000
vt 0.44531 0.50000
vt 0.44531 0.51563
vt 0.46094 0.51563
vt 0.46094 0.50000
vt 0.46875 0.50000
vt 0.46875 0.51563
vt 0.48438 0.51563
vt 0.48438 0.50000
vt 0.49219 0.50000
vt 0.49219 0.51563
vt 0.50781 0.51563
vt 0.50781 0.50000
vt 0.51563 0.50000
vt 0.51563 0.51563
vt 0.53125 0.51563
vt 0.53125 0.50000
vt 0.53906 0.50000
vt 0.53906 0.51563
vt 0.55469 0.51563
vt 0.55469 0.50000
vt 0.56250 0.50000
vt 0.56250 0.51563
vt 0.57813 0.51563
vt 0.57813 0.50000
vt 0.58594 0.50000
vt 0.58594 0.51563
vt 0.60156 0.51563
vt 0.60156 0.50000
vt 0.60938 0.50000
vt 0.60938 0.51563
vt 0.62500 0.51563
vt 0.62500 0.50000
vt 0.63281 0.50000
vt 0.63281 0.51563
vt 0.64844 0.51563
vt 0.64844 0.50000
vt 0.65625 0.50000
vt 0.65625 0.51563
vt 0.67188 0.51563
vt 0.67188 0.50000
vt 0.67969 0.50000
vt 0.67969 0.51563
vt 0.69531 0.51563
vt 0.69531 0.50000
vt 0.70313 0.50000
vt 0.70313 0.51563
vt 0.71875 0.51563
vt 0.71875 0.50000
vt 0.72656 0.50000
vt 0.72656 0.51563
vt 0.74219 0.51563
vt 0.74219 0.50000
vt 0.75000 0.50000
vt 0.75000 0.51563
vt 0.76563 0.51563
vt 0.76563 0.50000
vt 0.77344 0.50000
vt 0.77344 0.51563
vt 0.78906 0.51563
vt 0.78906 0.50000
vt 0.79688 0.50000
vt 0.79688 0.51563
vt 0.81250 0.51563
vt 0.81250 0.50000
vt 0.82031 0.50000
vt 0.82031 0.51563
vt 0.83594 0.51563
vt 0.83594 0.50000
vt 0.84375 0.50000
vt 0.84375 0.51563
vt 0.85938 0.51563
vt 0.85938 0.50000
vt 0.86719 0.50000
vt 0.86719 0.51563
vt 0.88281 0.51563
vt 0.88281 0.50000
vt 0.89063 0.50000
vt 0.89063 0.51563
vt 0.90625 0.51563
vt 0.90625 0.50000
vt 0.91406 0.50000
vt 0.91406 0.51563
vt 0.92969 0.51563
vt 0.92969 0.50000
vt 0.93750 0.50000
vt 0.93750 0.51563
vt 0.95313 0.51563
vt 0.95313 0.50000
vt 0.96094 0.50000
vt 0.96094 0.51563
vt 0.97656 0.51563
vt 0.97656 0.50000
vt 0.98438 0.50000
vt 0.98438 0.51563
vt 0.00781 0.57813
vt 0.00781 0.56250
vt 0.01563 0.56250
vt 0.01563 0.57813
vt 0.03125 0.57813
vt 0.03125 0.56250
vt 0.03906 0.56250
vt 0.03906 0.57813

g weapon_greatsword
usemtl weapon_sword_great_Material
f 1/37/2 2/38/2 3/39/2 4/40/2
f 5/33/2 6/34/2 7/35/2 8/36/2
f 9/29/2 10/30/2 11/31/2 12/32/2
f 13/49/2 14/50/2 15/51/2 16/52/2
f 17/77/2 18/78/2 19/79/2 20/80/2
f 11/97/2 21/98/2 22/99/2 6/100/2
f 23/229/2 24/230/2 25/231/2 26/232/2
f 27/177/2 28/178/2 29/179/2 30/180/2
f 31/169/2 4/170/2 32/171/2 33/172/2
f 34/173/2 35/174/2 1/175/2 36/176/2
f 37/193/2 38/194/2 39/195/2 40/196/2
f 41/197/2 42/198/2 43/199/2 44/200/2
f 45/185/2 46/186/2 47/187/2 48/188/2
f 49/353/2 50/354/2 51/355/2 52/356/2
f 53/365/2 54/366/2 55/367/2 56/368/2
f 57/369/2 58/370/2 59/371/2 60/372/2
f 61/45/1 62/46/1 63/47/1 64/48/1
f 65/41/1 66/42/1 67/43/1 68/44/1
f 69/25/1 70/26/1 71/27/1 72/28/1
f 73/65/1 74/66/1 75/67/1 76/68/1
f 77/81/1 6/82/1 11/83/1 78/84/1
f 79/61/1 80/62/1 81/63/1 82/64/1
f 63/93/1 83/94/1 84/95/1 66/96/1
f 85/225/1 86/226/1 87/227/1 88/228/1
f 89/257/1 90/258/1 91/259/1 92/260/1
f 93/181/1 94/182/1 95/183/1 96/184/1
f 97/213/1 98/214/1 99/215/1 100/216/1
f 101/201/1 102/202/1 69/203/1 60/204/1
f 57/209/1 72/210/1 103/211/1 104/212/1
f 105/141/1 106/142/1 107/143/1 108/144/1
f 31/289/1 109/290/1 110/291/1 36/292/1
f 111/301/1 5/302/1 12/303/1 112/304/1
f 113/313/1 114/314/1 115/315/1 116/316/1
f 117/309/1 118/310/1 119/311/1 120/312/1
f 121/349/1 122/350/1 123/351/1 124/352/1
f 37/505/1 125/506/1 126/507/1 44/508/1
f 127/453/1 128/454/1 129/455/1 130/456/1
f 131/457/1 132/458/1 133/459/1 134/460/1
f 8/5/3 7/6/3 62/7/3 61/8/3
f 4/9/3 3/10/3 6/11/3 5/12/3
f 64/13/3 63/14/3 70/15/3 69/16/3
f 20/73/3 19/74/3 74/75/3 73/76/3
f 82/53/3 81/54/3 135/55/3 136/56/3
f 78/89/3 137/90/3 14/91/3 138/92/3
f 26/221/3 25/222/3 86/223/3 85/224/3
f 33/121/3 32/122/3 102/123/3 101/124/3
f 139/233/3 22/234/3 83/235/3 140/236/3
f 92/237/3 91/238/3 141/239/3 142/240/3
f 137/249/3 11/250/3 97/251/3 45/252/3
f 30/133/3 29/134/3 4/135/3 31/136/3
f 6/157/3 139/158/3 38/159/3 37/160/3
f 40/189/3 39/190/3 94/191/3 93/192/3
f 96/205/3 95/206/3 140/207/3 63/208/3
f 60/137/3 69/138/3 106/139/3 105/140/3
f 112/269/3 12/270/3 65/271/3 143/272/3
f 116/281/3 115/282/3 136/283/3 141/284/3
f 120/285/3 119/286/3 138/287/3 135/288/3
f 52/321/3 51/322/3 122/323/3 121/324/3
f 36/337/3 144/338/3 58/339/3 57/340/3
f 144/345/3 110/346/3 143/347/3 13/348/3
f 130/361/3 129/362/3 142/363/3 65/364/3
f 56/465/3 55/466/3 132/467/3 131/468/3
f 44/461/3 126/462/3 46/463/3 97/464/3
f 68/1/4 67/2/4 10/3/4 9/4/4
f 12/21/4 11/22/4 2/23/4 1/24/4
f 72/17/4 71/18/4 66/19/4 65/20/4
f 145/57/4 146/58/4 80/59/4 79/60/4
f 76/69/4 75/70/4 18/71/4 17/72/4
f 147/85/4 15/86/4 148/87/4 77/88/4
f 104/117/4 103/118/4 35/119/4 34/120/4
f 88/217/4 87/218/4 24/219/4 23/220/4
f 149/245/4 150/246/4 90/247/4 89/248/4
f 151/241/4 84/242/4 21/243/4 152/244/4
f 48/253/4 96/254/4 6/255/4 148/256/4
f 36/153/4 1/154/4 28/155/4 27/156/4
f 44/149/4 43/150/4 152/151/4 11/152/4
f 100/145/4 99/146/4 42/147/4 41/148/4
f 66/165/4 151/166/4 98/167/4 97/168/4
f 108/161/4 107/162/4 72/163/4 57/164/4
f 153/273/4 64/274/4 5/275/4 111/276/4
f 150/277/4 145/278/4 114/279/4 113/280/4
f 146/305/4 147/306/4 118/307/4 117/308/4
f 124/317/4 123/318/4 50/319/4 49/320/4
f 60/329/4 59/330/4 154/331/4 31/332/4
f 16/341/4 153/342/4 109/343/4 154/344/4
f 64/357/4 149/358/4 128/359/4 127/360/4
f 96/501/4 47/502/4 125/503/4 37/504/4
f 134/509/4 133/510/4 54/511/4 53/512/4
f 26/109/5 85/110/5 88/111/5 23/112/5
f 52/101/5 19/102/5 18/103/5 49/104/5
f 74/105/5 121/106/5 124/107/5 75/108/5
f 80/293/5 117/294/5 120/295/5 81/296/5
f 109/517/5 111/518/5 112/519/5 110/520/5
f 6/513/5 37/514/5 44/515/5 11/516/5
f 90/485/5 113/486/5 116/487/5 91/488/5
f 5/481/5 127/482/5 130/483/5 12/484/5
f 125/489/5 47/490/5 46/491/5 126/492/5
f 48/497/5 15/498/5 14/499/5 45/500/5
f 16/493/5 59/494/5 58/495/5 13/496/5
f 60/113/6 31/114/6 36/115/6 57/116/6
f 155/129/6 51/130/6 50/131/6 156/132/6
f 122/125/6 157/126/6 158/127/6 123/128/6
f 159/265/6 160/266/6 20/267/6 73/268/6
f 76/261/6 17/262/6 161/263/6 162/264/6
f 118/297/6 77/298/6 78/299/6 119/300/6
f 160/325/6 25/326/6 24/327/6 161/328/6
f 86/333/6 159/334/6 162/335/6 87/336/6
f 33/381/6 155/382/6 30/383/6 31/384/6
f 4/373/6 29/374/6 28/375/6 1/376/6
f 36/425/6 27/426/6 156/427/6 34/428/6
f 8/433/6 32/434/6 4/435/6 5/436/6
f 6/405/6 3/406/6 2/407/6 11/408/6
f 12/401/6 1/402/6 35/403/6 9/404/6
f 40/409/6 7/410/6 6/411/6 37/412/6
f 56/417/6 22/418/6 21/419/6 53/420/6
f 114/413/6 79/414/6 82/415/6 115/416/6
f 128/437/6 89/438/6 92/439/6 129/440/6
f 44/473/6 11/474/6 10/475/6 41/476/6
f 94/477/6 39/478/6 38/479/6 95/480/6
f 132/469/6 55/470/6 54/471/6 133/472/6
f 98/445/6 43/446/6 42/447/6 99/448/6
f 62/441/6 93/442/6 96/443/6 63/444/6
f 83/449/6 131/450/6 134/451/6 84/452/6
f 66/389/6 97/390/6 100/391/6 67/392/6
f 102/397/6 61/398/6 64/399/6 69/400/6
f 70/393/6 63/394/6 66/395/6 71/396/6
f 72/429/6 65/430/6 68/431/6 103/432/6
f 157/421/6 101/422/6 60/423/6 105/424/6
f 106/377/6 69/378/6 72/379/6 107/380/6
f 108/385/6 57/386/6 104/387/6 158/388/6
