# This file was created with Minddesk Qubicle 3.0
# Get Qubicle at www.getqubicle.com

mtllib weapon_dagger.mtl

vn 0.0 0.0 1.0
vn 0.0 0.0 -1.0
vn -1.0 0.0 0.0
vn 1.0 0.0 0.0
vn 0.0 1.0 0.0
vn 0.0 -1.0 0.0

v 1.00000 57.00000 -1.00000
v 1.00000 50.00000 -1.00000
v -2.00000 50.00000 -1.00000
v -2.00000 57.00000 -1.00000
v 0.00000 49.00000 -2.00000
v 0.00000 44.00000 -2.00000
v -1.00000 44.00000 -2.00000
v -1.00000 49.00000 -2.00000
v 0.00000 44.00000 -1.00000
v 0.00000 36.00000 -1.00000
v -1.00000 36.00000 -1.00000
v -1.00000 44.00000 -1.00000
v -1.00000 45.00000 0.00000
v -1.00000 37.00000 0.00000
v -2.00000 37.00000 0.00000
v -2.00000 45.00000 0.00000
v 0.00000 36.00000 0.00000
v 0.00000 31.00000 0.00000
v -1.00000 31.00000 0.00000
v -1.00000 36.00000 0.00000
v 1.00000 45.00000 0.00000
v 1.00000 37.00000 0.00000
v 0.00000 37.00000 0.00000
v 0.00000 45.00000 0.00000
v 2.00000 60.00000 -2.00000
v 2.00000 57.00000 -2.00000
v -3.00000 57.00000 -2.00000
v -3.00000 60.00000 -2.00000
v -1.00000 49.00000 -1.00000
v -1.00000 45.00000 -1.00000
v -2.00000 45.00000 -1.00000
v -2.00000 49.00000 -1.00000
v 1.00000 49.00000 -1.00000
v 1.00000 45.00000 -1.00000
v 0.00000 45.00000 -1.00000
v 0.00000 49.00000 -1.00000
v 1.00000 50.00000 -5.00000
v 1.00000 49.00000 -5.00000
v -2.00000 49.00000 -5.00000
v -2.00000 50.00000 -5.00000
v -2.00000 57.00000 2.00000
v -2.00000 50.00000 2.00000
v 1.00000 50.00000 2.00000
v 1.00000 57.00000 2.00000
v -2.00000 45.00000 1.00000
v -2.00000 37.00000 1.00000
v -1.00000 37.00000 1.00000
v -1.00000 45.00000 1.00000
v -1.00000 36.00000 1.00000
v -1.00000 31.00000 1.00000
v 0.00000 31.00000 1.00000
v 0.00000 36.00000 1.00000
v 0.00000 45.00000 1.00000
v 0.00000 37.00000 1.00000
v 1.00000 37.00000 1.00000
v 1.00000 45.00000 1.00000
v -1.00000 44.00000 2.00000
v -1.00000 36.00000 2.00000
v 0.00000 36.00000 2.00000
v 0.00000 44.00000 2.00000
v -1.00000 49.00000 3.00000
v -1.00000 44.00000 3.00000
v 0.00000 44.00000 3.00000
v 0.00000 49.00000 3.00000
v -3.00000 60.00000 3.00000
v -3.00000 57.00000 3.00000
v 2.00000 57.00000 3.00000
v 2.00000 60.00000 3.00000
v -2.00000 49.00000 2.00000
v -2.00000 45.00000 2.00000
v -1.00000 45.00000 2.00000
v -1.00000 49.00000 2.00000
v 0.00000 49.00000 2.00000
v 0.00000 45.00000 2.00000
v 1.00000 45.00000 2.00000
v 1.00000 49.00000 2.00000
v -2.00000 50.00000 6.00000
v -2.00000 49.00000 6.00000
v 1.00000 49.00000 6.00000
v 1.00000 50.00000 6.00000
v -1.00000 37.00000 -1.00000
v -1.00000 44.00000 0.00000
v -1.00000 44.00000 1.00000
v -1.00000 37.00000 2.00000
v -1.00000 45.00000 -2.00000
v -1.00000 45.00000 3.00000
v 0.00000 44.00000 0.00000
v 0.00000 37.00000 -1.00000
v 0.00000 37.00000 2.00000
v 0.00000 44.00000 1.00000
v 0.00000 45.00000 -2.00000
v 0.00000 45.00000 3.00000
v -2.00000 49.00000 -2.00000
v 1.00000 49.00000 -2.00000
v -2.00000 49.00000 3.00000
v 1.00000 49.00000 3.00000
v -3.00000 57.00000 2.00000
v -3.00000 57.00000 -1.00000
v 2.00000 57.00000 -1.00000
v 2.00000 57.00000 2.00000

vt 0.01563 0.28125
vt 0.01563 0.03125
vt 0.03125 0.03125
vt 0.03125 0.28125
vt 0.06250 0.28125
vt 0.06250 0.03125
vt 0.07813 0.03125
vt 0.07813 0.28125
vt 0.10938 0.28125
vt 0.10938 0.03125
vt 0.12500 0.03125
vt 0.12500 0.28125
vt 0.15625 0.28125
vt 0.15625 0.03125
vt 0.17188 0.03125
vt 0.17188 0.28125
vt 0.20313 0.28125
vt 0.20313 0.03125
vt 0.21875 0.03125
vt 0.21875 0.28125
vt 0.25000 0.28125
vt 0.25000 0.03125
vt 0.26563 0.03125
vt 0.26563 0.28125
vt 0.29688 0.28125
vt 0.29688 0.03125
vt 0.31250 0.03125
vt 0.31250 0.28125
vt 0.34375 0.28125
vt 0.34375 0.03125
vt 0.35938 0.03125
vt 0.35938 0.28125
vt 0.39063 0.25000
vt 0.39063 0.03125
vt 0.43750 0.03125
vt 0.43750 0.25000
vt 0.46875 0.25000
vt 0.46875 0.03125
vt 0.51563 0.03125
vt 0.51563 0.25000
vt 0.54688 0.25000
vt 0.54688 0.03125
vt 0.59375 0.03125
vt 0.59375 0.25000
vt 0.62500 0.25000
vt 0.62500 0.03125
vt 0.67188 0.03125
vt 0.67188 0.25000
vt 0.70313 0.25000
vt 0.70313 0.03125
vt 0.71875 0.03125
vt 0.71875 0.25000
vt 0.75000 0.25000
vt 0.75000 0.03125
vt 0.76563 0.03125
vt 0.76563 0.25000
vt 0.79688 0.25000
vt 0.79688 0.03125
vt 0.81250 0.03125
vt 0.81250 0.25000
vt 0.84375 0.25000
vt 0.84375 0.03125
vt 0.85938 0.03125
vt 0.85938 0.25000
vt 0.89063 0.18750
vt 0.89063 0.03125
vt 0.96875 0.03125
vt 0.96875 0.18750
vt 0.01563 0.50000
vt 0.01563 0.34375
vt 0.03125 0.34375
vt 0.03125 0.50000
vt 0.06250 0.50000
vt 0.06250 0.34375
vt 0.07813 0.34375
vt 0.07813 0.50000
vt 0.10938 0.50000
vt 0.10938 0.34375
vt 0.12500 0.34375
vt 0.12500 0.50000
vt 0.15625 0.50000
vt 0.15625 0.34375
vt 0.17188 0.34375
vt 0.17188 0.50000
vt 0.20313 0.50000
vt 0.20313 0.34375
vt 0.21875 0.34375
vt 0.21875 0.50000
vt 0.25000 0.50000
vt 0.25000 0.34375
vt 0.26563 0.34375
vt 0.26563 0.50000
vt 0.29688 0.46875
vt 0.29688 0.34375
vt 0.34375 0.34375
vt 0.34375 0.46875
vt 0.37500 0.46875
vt 0.37500 0.34375
vt 0.42188 0.34375
vt 0.42188 0.46875
vt 0.45313 0.46875
vt 0.45313 0.34375
vt 0.50000 0.34375
vt 0.50000 0.46875
vt 0.53125 0.46875
vt 0.53125 0.34375
vt 0.57813 0.34375
vt 0.57813 0.46875
vt 0.60938 0.46875
vt 0.60938 0.34375
vt 0.62500 0.34375
vt 0.62500 0.46875
vt 0.65625 0.46875
vt 0.65625 0.34375
vt 0.67188 0.34375
vt 0.67188 0.46875
vt 0.70313 0.46875
vt 0.70313 0.34375
vt 0.71875 0.34375
vt 0.71875 0.46875
vt 0.75000 0.46875
vt 0.75000 0.34375
vt 0.76563 0.34375
vt 0.76563 0.46875
vt 0.79688 0.46875
vt 0.79688 0.34375
vt 0.81250 0.34375
vt 0.81250 0.46875
vt 0.84375 0.46875
vt 0.84375 0.34375
vt 0.85938 0.34375
vt 0.85938 0.46875
vt 0.89063 0.46875
vt 0.89063 0.34375
vt 0.90625 0.34375
vt 0.90625 0.46875
vt 0.93750 0.46875
vt 0.93750 0.34375
vt 0.95313 0.34375
vt 0.95313 0.46875
vt 0.01563 0.65625
vt 0.01563 0.56250
vt 0.09375 0.56250
vt 0.09375 0.65625
vt 0.12500 0.65625
vt 0.12500 0.56250
vt 0.20313 0.56250
vt 0.20313 0.65625
vt 0.23438 0.65625
vt 0.23438 0.56250
vt 0.31250 0.56250
vt 0.31250 0.65625
vt 0.34375 0.65625
vt 0.34375 0.56250
vt 0.42188 0.56250
vt 0.42188 0.65625
vt 0.45313 0.65625
vt 0.45313 0.56250
vt 0.50000 0.56250
vt 0.50000 0.65625
vt 0.53125 0.65625
vt 0.53125 0.56250
vt 0.57813 0.56250
vt 0.57813 0.65625
vt 0.60938 0.65625
vt 0.60938 0.56250
vt 0.62500 0.56250
vt 0.62500 0.65625
vt 0.65625 0.65625
vt 0.65625 0.56250
vt 0.67188 0.56250
vt 0.67188 0.65625
vt 0.70313 0.59375
vt 0.70313 0.56250
vt 0.87500 0.56250
vt 0.87500 0.59375
vt 0.01563 0.75000
vt 0.01563 0.71875
vt 0.18750 0.71875
vt 0.18750 0.75000
vt 0.90625 0.59375
vt 0.90625 0.56250
vt 0.98438 0.56250
vt 0.98438 0.59375
vt 0.21875 0.75000
vt 0.21875 0.71875
vt 0.29688 0.71875
vt 0.29688 0.75000
vt 0.32813 0.75000
vt 0.32813 0.71875
vt 0.37500 0.71875
vt 0.37500 0.75000
vt 0.40625 0.75000
vt 0.40625 0.71875
vt 0.45313 0.71875
vt 0.45313 0.75000
vt 0.48438 0.75000
vt 0.48438 0.71875
vt 0.53125 0.71875
vt 0.53125 0.75000
vt 0.56250 0.75000
vt 0.56250 0.71875
vt 0.60938 0.71875
vt 0.60938 0.75000
vt 0.64063 0.75000
vt 0.64063 0.71875
vt 0.67188 0.71875
vt 0.67188 0.75000
vt 0.70313 0.75000
vt 0.70313 0.71875
vt 0.73438 0.71875
vt 0.73438 0.75000
vt 0.76563 0.75000
vt 0.76563 0.71875
vt 0.79688 0.71875
vt 0.79688 0.75000
vt 0.82813 0.75000
vt 0.82813 0.71875
vt 0.85938 0.71875
vt 0.85938 0.75000
vt 0.89063 0.75000
vt 0.89063 0.71875
vt 0.90625 0.71875
vt 0.90625 0.75000
vt 0.93750 0.75000
vt 0.93750 0.71875
vt 0.95313 0.71875
vt 0.95313 0.75000
vt 0.01563 0.84375
vt 0.01563 0.81250
vt 0.03125 0.81250
vt 0.03125 0.84375
vt 0.06250 0.84375
vt 0.06250 0.81250
vt 0.07813 0.81250
vt 0.07813 0.84375
vt 0.10938 0.84375
vt 0.10938 0.81250
vt 0.12500 0.81250
vt 0.12500 0.84375
vt 0.15625 0.84375
vt 0.15625 0.81250
vt 0.17188 0.81250
vt 0.17188 0.84375
vt 0.20313 0.84375
vt 0.20313 0.81250
vt 0.21875 0.81250
vt 0.21875 0.84375
vt 0.25000 0.84375
vt 0.25000 0.81250
vt 0.26563 0.81250
vt 0.26563 0.84375
vt 0.29688 0.84375
vt 0.29688 0.81250
vt 0.31250 0.81250
vt 0.31250 0.84375
vt 0.34375 0.84375
vt 0.34375 0.81250
vt 0.35938 0.81250
vt 0.35938 0.84375
vt 0.39063 0.84375
vt 0.39063 0.81250
vt 0.40625 0.81250
vt 0.40625 0.84375
vt 0.43750 0.84375
vt 0.43750 0.81250
vt 0.45313 0.81250
vt 0.45313 0.84375
vt 0.48438 0.84375
vt 0.48438 0.81250
vt 0.50000 0.81250
vt 0.50000 0.84375
vt 0.53125 0.84375
vt 0.53125 0.81250
vt 0.54688 0.81250
vt 0.54688 0.84375
vt 0.57813 0.84375
vt 0.57813 0.81250
vt 0.59375 0.81250
vt 0.59375 0.84375

g weapon_shortsword
usemtl weapon_dagger_Material
f 1/41/2 2/42/2 3/43/2 4/44/2
f 5/85/2 6/86/2 7/87/2 8/88/2
f 9/17/2 10/18/2 11/19/2 12/20/2
f 13/29/2 14/30/2 15/31/2 16/32/2
f 17/81/2 18/82/2 19/83/2 20/84/2
f 21/25/2 22/26/2 23/27/2 24/28/2
f 25/145/2 26/146/2 27/147/2 28/148/2
f 29/129/2 30/130/2 31/131/2 32/132/2
f 33/117/2 34/118/2 35/119/2 36/120/2
f 37/193/2 38/194/2 39/195/2 40/196/2
f 41/37/1 42/38/1 43/39/1 44/40/1
f 45/1/1 46/2/1 47/3/1 48/4/1
f 49/89/1 50/90/1 51/91/1 52/92/1
f 53/13/1 54/14/1 55/15/1 56/16/1
f 57/9/1 58/10/1 59/11/1 60/12/1
f 61/77/1 62/78/1 63/79/1 64/80/1
f 65/153/1 66/154/1 67/155/1 68/156/1
f 69/121/1 70/122/1 71/123/1 72/124/1
f 73/125/1 74/126/1 75/127/1 76/128/1
f 77/189/1 78/190/1 79/191/1 80/192/1
f 4/45/3 3/46/3 42/47/3 41/48/3
f 12/49/3 81/50/3 14/51/3 82/52/3
f 16/5/3 15/6/3 46/7/3 45/8/3
f 20/69/3 19/70/3 50/71/3 49/72/3
f 83/57/3 47/58/3 84/59/3 57/60/3
f 28/141/3 27/142/3 66/143/3 65/144/3
f 32/97/3 31/98/3 70/99/3 69/100/3
f 8/109/3 85/110/3 30/111/3 29/112/3
f 72/113/3 71/114/3 86/115/3 61/116/3
f 40/177/3 39/178/3 78/179/3 77/180/3
f 81/201/3 11/202/3 58/203/3 84/204/3
f 85/209/3 7/210/3 82/211/3 13/212/3
f 48/217/3 83/218/3 62/219/3 86/220/3
f 44/33/4 43/34/4 2/35/4 1/36/4
f 87/61/4 23/62/4 88/63/4 9/64/4
f 52/73/4 51/74/4 18/75/4 17/76/4
f 56/21/4 55/22/4 22/23/4 21/24/4
f 60/53/4 89/54/4 54/55/4 90/56/4
f 68/149/4 67/150/4 26/151/4 25/152/4
f 76/93/4 75/94/4 34/95/4 33/96/4
f 36/137/4 35/138/4 91/139/4 5/140/4
f 64/133/4 92/134/4 74/135/4 73/136/4
f 80/173/4 79/174/4 38/175/4 37/176/4
f 89/197/4 59/198/4 10/199/4 88/200/4
f 24/205/4 87/206/4 6/207/4 91/208/4
f 92/213/4 63/214/4 90/215/4 53/216/4
f 28/65/5 65/66/5 68/67/5 25/68/5
f 40/105/5 3/106/5 2/107/5 37/108/5
f 42/101/5 77/102/5 80/103/5 43/104/5
f 93/161/6 39/162/6 38/163/6 94/164/6
f 78/157/6 95/158/6 96/159/6 79/160/6
f 97/165/6 98/166/6 4/167/6 41/168/6
f 44/169/6 1/170/6 99/171/6 100/172/6
f 98/181/6 27/182/6 26/183/6 99/184/6
f 66/185/6 97/186/6 100/187/6 67/188/6
f 32/253/6 93/254/6 8/255/6 29/256/6
f 12/257/6 7/258/6 6/259/6 9/260/6
f 36/249/6 5/250/6 94/251/6 33/252/6
f 16/241/6 31/242/6 30/243/6 13/244/6
f 20/245/6 11/246/6 10/247/6 17/248/6
f 24/273/6 35/274/6 34/275/6 21/276/6
f 46/277/6 15/278/6 14/279/6 47/280/6
f 50/269/6 19/270/6 18/271/6 51/272/6
f 54/261/6 23/262/6 22/263/6 55/264/6
f 70/265/6 45/266/6 48/267/6 71/268/6
f 58/237/6 49/238/6 52/239/6 59/240/6
f 74/221/6 53/222/6 56/223/6 75/224/6
f 95/233/6 69/234/6 72/235/6 61/236/6
f 62/225/6 57/226/6 60/227/6 63/228/6
f 64/229/6 73/230/6 76/231/6 96/232/6
