# This file was created with Minddesk Qubicle 3.0
# Get Qubicle at www.getqubicle.com

mtllib hair_mohawk.mtl

vn 0.0 0.0 1.0
vn 0.0 0.0 -1.0
vn -1.0 0.0 0.0
vn 1.0 0.0 0.0
vn 0.0 1.0 0.0
vn 0.0 -1.0 0.0

v 8.00000 65.00000 -2.00000
v 8.00000 50.00000 -2.00000
v -8.00000 50.00000 -2.00000
v -8.00000 65.00000 -2.00000
v -7.00000 73.00000 -1.00000
v -7.00000 70.00000 -1.00000
v -8.00000 70.00000 -1.00000
v -8.00000 73.00000 -1.00000
v -5.00000 73.00000 -1.00000
v -5.00000 70.00000 -1.00000
v -6.00000 70.00000 -1.00000
v -6.00000 73.00000 -1.00000
v -3.00000 73.00000 -1.00000
v -3.00000 70.00000 -1.00000
v -4.00000 70.00000 -1.00000
v -4.00000 73.00000 -1.00000
v -1.00000 72.00000 -1.00000
v -1.00000 70.00000 -1.00000
v -2.00000 70.00000 -1.00000
v -2.00000 72.00000 -1.00000
v 1.00000 72.00000 -1.00000
v 1.00000 70.00000 -1.00000
v 0.00000 70.00000 -1.00000
v 0.00000 72.00000 -1.00000
v 3.00000 72.00000 -1.00000
v 3.00000 70.00000 -1.00000
v 2.00000 70.00000 -1.00000
v 2.00000 72.00000 -1.00000
v 6.00000 66.00000 -2.00000
v 6.00000 65.00000 -2.00000
v -8.00000 66.00000 -2.00000
v 5.00000 67.00000 -2.00000
v 5.00000 66.00000 -2.00000
v -8.00000 67.00000 -2.00000
v 4.00000 68.00000 -2.00000
v 4.00000 67.00000 -2.00000
v -8.00000 68.00000 -2.00000
v 5.00000 70.00000 -1.00000
v 5.00000 69.00000 -1.00000
v -8.00000 69.00000 -1.00000
v 6.00000 69.00000 -1.00000
v 6.00000 68.00000 -1.00000
v -3.00000 68.00000 -1.00000
v -3.00000 69.00000 -1.00000
v -3.00000 69.00000 -2.00000
v -3.00000 68.00000 -2.00000
v -8.00000 69.00000 -2.00000
v 6.00000 67.00000 -1.00000
v 4.00000 67.00000 -1.00000
v 4.00000 68.00000 -1.00000
v 7.00000 67.00000 -1.00000
v 7.00000 66.00000 -1.00000
v 5.00000 66.00000 -1.00000
v 5.00000 67.00000 -1.00000
v 5.00000 71.00000 -1.00000
v 4.00000 70.00000 -1.00000
v 4.00000 71.00000 -1.00000
v 7.00000 65.00000 -1.00000
v 6.00000 65.00000 -1.00000
v 6.00000 66.00000 -1.00000
v -8.00000 65.00000 2.00000
v -8.00000 50.00000 2.00000
v 8.00000 50.00000 2.00000
v 8.00000 65.00000 2.00000
v -8.00000 73.00000 1.00000
v -8.00000 70.00000 1.00000
v -7.00000 70.00000 1.00000
v -7.00000 73.00000 1.00000
v -6.00000 73.00000 1.00000
v -6.00000 70.00000 1.00000
v -5.00000 70.00000 1.00000
v -5.00000 73.00000 1.00000
v -4.00000 73.00000 1.00000
v -4.00000 70.00000 1.00000
v -3.00000 70.00000 1.00000
v -3.00000 73.00000 1.00000
v -2.00000 72.00000 1.00000
v -2.00000 70.00000 1.00000
v -1.00000 70.00000 1.00000
v -1.00000 72.00000 1.00000
v 0.00000 72.00000 1.00000
v 0.00000 70.00000 1.00000
v 1.00000 70.00000 1.00000
v 1.00000 72.00000 1.00000
v 2.00000 72.00000 1.00000
v 2.00000 70.00000 1.00000
v 3.00000 70.00000 1.00000
v 3.00000 72.00000 1.00000
v -8.00000 69.00000 1.00000
v 5.00000 69.00000 1.00000
v 5.00000 70.00000 1.00000
v -3.00000 69.00000 1.00000
v -3.00000 68.00000 1.00000
v 6.00000 68.00000 1.00000
v 6.00000 69.00000 1.00000
v -8.00000 66.00000 2.00000
v 6.00000 65.00000 2.00000
v 6.00000 66.00000 2.00000
v -8.00000 67.00000 2.00000
v 5.00000 66.00000 2.00000
v 5.00000 67.00000 2.00000
v -8.00000 68.00000 2.00000
v 4.00000 67.00000 2.00000
v 4.00000 68.00000 2.00000
v -8.00000 69.00000 2.00000
v -3.00000 68.00000 2.00000
v -3.00000 69.00000 2.00000
v 4.00000 68.00000 1.00000
v 4.00000 67.00000 1.00000
v 6.00000 67.00000 1.00000
v 5.00000 67.00000 1.00000
v 5.00000 66.00000 1.00000
v 7.00000 66.00000 1.00000
v 7.00000 67.00000 1.00000
v 4.00000 71.00000 1.00000
v 4.00000 70.00000 1.00000
v 5.00000 71.00000 1.00000
v 6.00000 66.00000 1.00000
v 6.00000 65.00000 1.00000
v 7.00000 65.00000 1.00000
v 8.00000 65.00000 1.00000
v 8.00000 65.00000 -1.00000

vt 0.01563 0.31250
vt 0.01563 0.01563
vt 0.07813 0.01563
vt 0.07813 0.31250
vt 0.10938 0.25000
vt 0.10938 0.01563
vt 0.35938 0.01563
vt 0.35938 0.25000
vt 0.39063 0.25000
vt 0.39063 0.01563
vt 0.64063 0.01563
vt 0.64063 0.25000
vt 0.67188 0.25000
vt 0.67188 0.01563
vt 0.73438 0.01563
vt 0.73438 0.25000
vt 0.01563 0.40625
vt 0.01563 0.34375
vt 0.26563 0.34375
vt 0.26563 0.40625
vt 0.76563 0.07813
vt 0.76563 0.01563
vt 0.79688 0.01563
vt 0.79688 0.07813
vt 0.82813 0.06250
vt 0.82813 0.01563
vt 0.85938 0.01563
vt 0.85938 0.06250
vt 0.89063 0.06250
vt 0.89063 0.01563
vt 0.92188 0.01563
vt 0.92188 0.06250
vt 0.95313 0.06250
vt 0.95313 0.01563
vt 0.98438 0.01563
vt 0.98438 0.06250
vt 0.76563 0.15625
vt 0.76563 0.10938
vt 0.79688 0.10938
vt 0.79688 0.15625
vt 0.82813 0.15625
vt 0.82813 0.10938
vt 0.85938 0.10938
vt 0.85938 0.15625
vt 0.89063 0.15625
vt 0.89063 0.10938
vt 0.90625 0.10938
vt 0.90625 0.15625
vt 0.93750 0.15625
vt 0.93750 0.10938
vt 0.95313 0.10938
vt 0.95313 0.15625
vt 0.76563 0.23438
vt 0.76563 0.18750
vt 0.78125 0.18750
vt 0.78125 0.23438
vt 0.81250 0.23438
vt 0.81250 0.18750
vt 0.82813 0.18750
vt 0.82813 0.23438
vt 0.85938 0.23438
vt 0.85938 0.18750
vt 0.87500 0.18750
vt 0.87500 0.23438
vt 0.90625 0.23438
vt 0.90625 0.18750
vt 0.92188 0.18750
vt 0.92188 0.23438
vt 0.95313 0.21875
vt 0.95313 0.18750
vt 0.98438 0.18750
vt 0.98438 0.21875
vt 0.10938 0.31250
vt 0.10938 0.28125
vt 0.14063 0.28125
vt 0.14063 0.31250
vt 0.17188 0.31250
vt 0.17188 0.28125
vt 0.20313 0.28125
vt 0.20313 0.31250
vt 0.23438 0.31250
vt 0.23438 0.28125
vt 0.26563 0.28125
vt 0.26563 0.31250
vt 0.29688 0.31250
vt 0.29688 0.28125
vt 0.32813 0.28125
vt 0.32813 0.31250
vt 0.35938 0.31250
vt 0.35938 0.28125
vt 0.39063 0.28125
vt 0.39063 0.31250
vt 0.42188 0.31250
vt 0.42188 0.28125
vt 0.45313 0.28125
vt 0.45313 0.31250
vt 0.48438 0.31250
vt 0.48438 0.28125
vt 0.51563 0.28125
vt 0.51563 0.31250
vt 0.54688 0.31250
vt 0.54688 0.28125
vt 0.57813 0.28125
vt 0.57813 0.31250
vt 0.60938 0.31250
vt 0.60938 0.28125
vt 0.62500 0.28125
vt 0.62500 0.31250
vt 0.65625 0.31250
vt 0.65625 0.28125
vt 0.67188 0.28125
vt 0.67188 0.31250
vt 0.70313 0.31250
vt 0.70313 0.28125
vt 0.71875 0.28125
vt 0.71875 0.31250
vt 0.75000 0.31250
vt 0.75000 0.28125
vt 0.76563 0.28125
vt 0.76563 0.31250
vt 0.79688 0.31250
vt 0.79688 0.28125
vt 0.81250 0.28125
vt 0.81250 0.31250
vt 0.84375 0.31250
vt 0.84375 0.28125
vt 0.85938 0.28125
vt 0.85938 0.31250
vt 0.89063 0.31250
vt 0.89063 0.28125
vt 0.90625 0.28125
vt 0.90625 0.31250
vt 0.93750 0.31250
vt 0.93750 0.28125
vt 0.95313 0.28125
vt 0.95313 0.31250
vt 0.29688 0.37500
vt 0.29688 0.34375
vt 0.31250 0.34375
vt 0.31250 0.37500
vt 0.34375 0.37500
vt 0.34375 0.34375
vt 0.35938 0.34375
vt 0.35938 0.37500
vt 0.39063 0.37500
vt 0.39063 0.34375
vt 0.40625 0.34375
vt 0.40625 0.37500
vt 0.43750 0.37500
vt 0.43750 0.34375
vt 0.45313 0.34375
vt 0.45313 0.37500
vt 0.48438 0.37500
vt 0.48438 0.34375
vt 0.50000 0.34375
vt 0.50000 0.37500
vt 0.53125 0.37500
vt 0.53125 0.34375
vt 0.54688 0.34375
vt 0.54688 0.37500
vt 0.57813 0.37500
vt 0.57813 0.34375
vt 0.59375 0.34375
vt 0.59375 0.37500
vt 0.62500 0.37500
vt 0.62500 0.34375
vt 0.64063 0.34375
vt 0.64063 0.37500
vt 0.67188 0.37500
vt 0.67188 0.34375
vt 0.68750 0.34375
vt 0.68750 0.37500
vt 0.71875 0.37500
vt 0.71875 0.34375
vt 0.73438 0.34375
vt 0.73438 0.37500
vt 0.76563 0.37500
vt 0.76563 0.34375
vt 0.78125 0.34375
vt 0.78125 0.37500
vt 0.81250 0.37500
vt 0.81250 0.34375
vt 0.82813 0.34375
vt 0.82813 0.37500
vt 0.85938 0.37500
vt 0.85938 0.34375
vt 0.87500 0.34375
vt 0.87500 0.37500
vt 0.90625 0.37500
vt 0.90625 0.34375
vt 0.92188 0.34375
vt 0.92188 0.37500
vt 0.01563 0.45313
vt 0.01563 0.43750
vt 0.23438 0.43750
vt 0.23438 0.45313
vt 0.26563 0.45313
vt 0.26563 0.43750
vt 0.48438 0.43750
vt 0.48438 0.45313
vt 0.51563 0.45313
vt 0.51563 0.43750
vt 0.71875 0.43750
vt 0.71875 0.45313
vt 0.75000 0.45313
vt 0.75000 0.43750
vt 0.95313 0.43750
vt 0.95313 0.45313
vt 0.01563 0.50000
vt 0.01563 0.48438
vt 0.21875 0.48438
vt 0.21875 0.50000
vt 0.25000 0.50000
vt 0.25000 0.48438
vt 0.45313 0.48438
vt 0.45313 0.50000
vt 0.48438 0.50000
vt 0.48438 0.48438
vt 0.67188 0.48438
vt 0.67188 0.50000
vt 0.70313 0.50000
vt 0.70313 0.48438
vt 0.89063 0.48438
vt 0.89063 0.50000
vt 0.01563 0.54688
vt 0.01563 0.53125
vt 0.15625 0.53125
vt 0.15625 0.54688
vt 0.18750 0.54688
vt 0.18750 0.53125
vt 0.32813 0.53125
vt 0.32813 0.54688
vt 0.35938 0.54688
vt 0.35938 0.53125
vt 0.46875 0.53125
vt 0.46875 0.54688
vt 0.50000 0.54688
vt 0.50000 0.53125
vt 0.60938 0.53125
vt 0.60938 0.54688
vt 0.64063 0.54688
vt 0.64063 0.53125
vt 0.71875 0.53125
vt 0.71875 0.54688
vt 0.75000 0.54688
vt 0.75000 0.53125
vt 0.82813 0.53125
vt 0.82813 0.54688
vt 0.85938 0.54688
vt 0.85938 0.53125
vt 0.93750 0.53125
vt 0.93750 0.54688
vt 0.01563 0.59375
vt 0.01563 0.57813
vt 0.09375 0.57813
vt 0.09375 0.59375
vt 0.95313 0.35938
vt 0.95313 0.34375
vt 0.98438 0.34375
vt 0.98438 0.35938
vt 0.92188 0.50000
vt 0.92188 0.48438
vt 0.95313 0.48438
vt 0.95313 0.50000
vt 0.12500 0.59375
vt 0.12500 0.57813
vt 0.15625 0.57813
vt 0.15625 0.59375
vt 0.18750 0.59375
vt 0.18750 0.57813
vt 0.21875 0.57813
vt 0.21875 0.59375
vt 0.25000 0.59375
vt 0.25000 0.57813
vt 0.28125 0.57813
vt 0.28125 0.59375
vt 0.31250 0.59375
vt 0.31250 0.57813
vt 0.34375 0.57813
vt 0.34375 0.59375
vt 0.37500 0.59375
vt 0.37500 0.57813
vt 0.40625 0.57813
vt 0.40625 0.59375
vt 0.96875 0.54688
vt 0.96875 0.53125
vt 0.98438 0.53125
vt 0.98438 0.54688
vt 0.43750 0.59375
vt 0.43750 0.57813
vt 0.45313 0.57813
vt 0.45313 0.59375
vt 0.48438 0.59375
vt 0.48438 0.57813
vt 0.50000 0.57813
vt 0.50000 0.59375
vt 0.53125 0.59375
vt 0.53125 0.57813
vt 0.54688 0.57813
vt 0.54688 0.59375
vt 0.57813 0.59375
vt 0.57813 0.57813
vt 0.59375 0.57813
vt 0.59375 0.59375
vt 0.62500 0.59375
vt 0.62500 0.57813
vt 0.64063 0.57813
vt 0.64063 0.59375
vt 0.67188 0.59375
vt 0.67188 0.57813
vt 0.68750 0.57813
vt 0.68750 0.59375
vt 0.71875 0.59375
vt 0.71875 0.57813
vt 0.73438 0.57813
vt 0.73438 0.59375
vt 0.76563 0.59375
vt 0.76563 0.57813
vt 0.78125 0.57813
vt 0.78125 0.59375
vt 0.81250 0.59375
vt 0.81250 0.57813
vt 0.82813 0.57813
vt 0.82813 0.59375
vt 0.85938 0.59375
vt 0.85938 0.57813
vt 0.87500 0.57813
vt 0.87500 0.59375
vt 0.90625 0.59375
vt 0.90625 0.57813
vt 0.92188 0.57813
vt 0.92188 0.59375
vt 0.95313 0.59375
vt 0.95313 0.57813
vt 0.96875 0.57813
vt 0.96875 0.59375
vt 0.01563 0.64063
vt 0.01563 0.62500
vt 0.03125 0.62500
vt 0.03125 0.64063
vt 0.06250 0.64063
vt 0.06250 0.62500
vt 0.07813 0.62500
vt 0.07813 0.64063
vt 0.10938 0.64063
vt 0.10938 0.62500
vt 0.12500 0.62500
vt 0.12500 0.64063

g Box
usemtl hair_mohawk_Material
f 1/9/2 2/10/2 3/11/2 4/12/2
f 5/45/2 6/46/2 7/47/2 8/48/2
f 9/49/2 10/50/2 11/51/2 12/52/2
f 13/53/2 14/54/2 15/55/2 16/56/2
f 17/157/2 18/158/2 19/159/2 20/160/2
f 21/153/2 22/154/2 23/155/2 24/156/2
f 25/173/2 26/174/2 27/175/2 28/176/2
f 29/197/2 30/198/2 4/199/2 31/200/2
f 32/209/2 33/210/2 31/211/2 34/212/2
f 35/221/2 36/222/2 34/223/2 37/224/2
f 38/205/2 39/206/2 40/207/2 7/208/2
f 41/229/2 42/230/2 43/231/2 44/232/2
f 45/253/2 46/254/2 37/255/2 47/256/2
f 42/257/2 48/258/2 49/259/2 50/260/2
f 51/261/2 52/262/2 53/263/2 54/264/2
f 55/317/2 38/318/2 56/319/2 57/320/2
f 52/329/2 58/330/2 59/331/2 60/332/2
f 61/5/1 62/6/1 63/7/1 64/8/1
f 65/65/1 66/66/1 67/67/1 68/68/1
f 69/61/1 70/62/1 71/63/1 72/64/1
f 73/57/1 74/58/1 75/59/1 76/60/1
f 77/137/1 78/138/1 79/139/1 80/140/1
f 81/133/1 82/134/1 83/135/1 84/136/1
f 85/129/1 86/130/1 87/131/1 88/132/1
f 66/213/1 89/214/1 90/215/1 91/216/1
f 92/225/1 93/226/1 94/227/1 95/228/1
f 96/193/1 61/194/1 97/195/1 98/196/1
f 99/201/1 96/202/1 100/203/1 101/204/1
f 102/217/1 99/218/1 103/219/1 104/220/1
f 105/249/1 102/250/1 106/251/1 107/252/1
f 108/281/1 109/282/1 110/283/1 94/284/1
f 111/277/1 112/278/1 113/279/1 114/280/1
f 115/333/1 116/334/1 91/335/1 117/336/1
f 118/321/1 119/322/1 120/323/1 113/324/1
f 47/1/3 3/2/3 62/3/3 105/4/3
f 8/21/3 40/22/3 89/23/3 65/24/3
f 12/37/3 11/38/3 70/39/3 69/40/3
f 16/41/3 15/42/3 74/43/3 73/44/3
f 20/89/3 19/90/3 78/91/3 77/92/3
f 24/85/3 23/86/3 82/87/3 81/88/3
f 28/81/3 27/82/3 86/83/3 85/84/3
f 57/273/3 56/274/3 116/275/3 115/276/3
f 64/13/4 63/14/4 2/15/4 1/16/4
f 68/33/4 67/34/4 6/35/4 5/36/4
f 72/25/4 71/26/4 10/27/4 9/28/4
f 76/29/4 75/30/4 14/31/4 13/32/4
f 80/101/4 79/102/4 18/103/4 17/104/4
f 84/97/4 83/98/4 22/99/4 21/100/4
f 88/93/4 87/94/4 26/95/4 25/96/4
f 117/69/4 90/70/4 39/71/4 55/72/4
f 95/73/4 110/74/4 48/75/4 41/76/4
f 114/77/4 120/78/4 58/79/4 51/80/4
f 44/337/4 43/338/4 46/339/4 45/340/4
f 50/293/4 49/294/4 36/295/4 35/296/4
f 54/289/4 53/290/4 33/291/4 32/292/4
f 60/285/4 59/286/4 30/287/4 29/288/4
f 107/309/4 106/310/4 93/311/4 92/312/4
f 104/313/4 103/314/4 109/315/4 108/316/4
f 101/305/4 100/306/4 112/307/4 111/308/4
f 98/297/4 97/298/4 119/299/4 118/300/4
f 8/165/5 65/166/5 68/167/5 5/168/5
f 6/169/5 67/170/5 70/171/5 11/172/5
f 12/177/5 69/178/5 72/179/5 9/180/5
f 10/161/5 71/162/5 74/163/5 15/164/5
f 16/181/5 73/182/5 76/183/5 13/184/5
f 14/189/5 75/190/5 78/191/5 19/192/5
f 20/185/5 77/186/5 80/187/5 17/188/5
f 18/117/5 79/118/5 82/119/5 23/120/5
f 24/121/5 81/122/5 84/123/5 21/124/5
f 22/125/5 83/126/5 86/127/5 27/128/5
f 28/105/5 85/106/5 88/107/5 25/108/5
f 26/109/5 87/110/5 116/111/5 56/112/5
f 57/113/5 115/114/5 117/115/5 55/116/5
f 39/141/5 90/142/5 95/143/5 41/144/5
f 48/145/5 110/146/5 114/147/5 51/148/5
f 58/149/5 120/150/5 121/151/5 122/152/5
f 47/245/5 40/246/5 44/247/5 45/248/5
f 46/233/5 43/234/5 50/235/5 35/236/5
f 89/241/5 105/242/5 107/243/5 92/244/5
f 93/237/5 106/238/5 104/239/5 108/240/5
f 30/269/5 59/270/5 122/271/5 1/272/5
f 119/265/5 97/266/5 64/267/5 121/268/5
f 36/345/5 49/346/5 54/347/5 32/348/5
f 33/341/5 53/342/5 60/343/5 29/344/5
f 109/325/5 103/326/5 101/327/5 111/328/5
f 112/301/5 100/302/5 98/303/5 118/304/5
f 62/17/6 3/18/6 2/19/6 63/20/6
