# This file was created with Minddesk Qubicle 3.0
# Get Qubicle at www.getqubicle.com

mtllib hair_buzz.mtl

vn 0.0 0.0 1.0
vn 0.0 0.0 -1.0
vn -1.0 0.0 0.0
vn 1.0 0.0 0.0
vn 0.0 1.0 0.0
vn 0.0 -1.0 0.0

v 8.00000 58.00000 -10.00000
v 8.00000 50.00000 -10.00000
v -8.00000 50.00000 -10.00000
v -8.00000 58.00000 -10.00000
v -8.00000 58.00000 10.00000
v -8.00000 50.00000 10.00000
v 8.00000 50.00000 10.00000
v 8.00000 58.00000 10.00000

vt 0.01563 0.65625
vt 0.01563 0.03125
vt 0.26563 0.03125
vt 0.26563 0.65625
vt 0.29688 0.65625
vt 0.29688 0.03125
vt 0.54688 0.03125
vt 0.54688 0.65625
vt 0.57813 0.28125
vt 0.57813 0.03125
vt 0.89063 0.03125
vt 0.89063 0.28125
vt 0.57813 0.59375
vt 0.57813 0.34375
vt 0.89063 0.34375
vt 0.89063 0.59375
vt 0.01563 0.96875
vt 0.01563 0.71875
vt 0.26563 0.71875
vt 0.26563 0.96875
vt 0.29688 0.96875
vt 0.29688 0.71875
vt 0.54688 0.71875
vt 0.54688 0.96875

g Box
usemtl hair_buzz_Material
f 1/17/2 2/18/2 3/19/2 4/20/2
f 5/21/1 6/22/1 7/23/1 8/24/1
f 4/9/3 3/10/3 6/11/3 5/12/3
f 8/13/4 7/14/4 2/15/4 1/16/4
f 4/1/5 5/2/5 8/3/5 1/4/5
f 6/5/6 3/6/6 2/7/6 7/8/6
