# This file was created with Minddesk Qubicle 3.0
# Get Qubicle at www.getqubicle.com

mtllib eye_basic_oval.mtl

vn 0.0 0.0 1.0
vn 0.0 0.0 -1.0
vn -1.0 0.0 0.0
vn 1.0 0.0 0.0
vn 0.0 1.0 0.0
vn 0.0 -1.0 0.0

v 0.00000 35.00000 -1.00000
v 0.00000 28.00000 -1.00000
v -1.00000 28.00000 -1.00000
v -1.00000 35.00000 -1.00000
v -1.00000 35.00000 2.00000
v -1.00000 28.00000 2.00000
v 0.00000 28.00000 2.00000
v 0.00000 35.00000 2.00000

vt 0.06250 0.50000
vt 0.06250 0.06250
vt 0.25000 0.06250
vt 0.25000 0.50000
vt 0.37500 0.50000
vt 0.37500 0.06250
vt 0.56250 0.06250
vt 0.56250 0.50000
vt 0.68750 0.50000
vt 0.68750 0.06250
vt 0.75000 0.06250
vt 0.75000 0.50000
vt 0.87500 0.50000
vt 0.87500 0.06250
vt 0.93750 0.06250
vt 0.93750 0.50000
vt 0.06250 0.81250
vt 0.06250 0.62500
vt 0.12500 0.62500
vt 0.12500 0.81250
vt 0.25000 0.81250
vt 0.25000 0.62500
vt 0.31250 0.62500
vt 0.31250 0.81250

g eye_basic_oval
usemtl eye_basic_oval_Material
f 1/13/2 2/14/2 3/15/2 4/16/2
f 5/9/1 6/10/1 7/11/1 8/12/1
f 4/5/3 3/6/3 6/7/3 5/8/3
f 8/1/4 7/2/4 2/3/4 1/4/4
f 4/17/5 5/18/5 8/19/5 1/20/5
f 6/21/6 3/22/6 2/23/6 7/24/6
