# This file was created with Minddesk Qubicle 3.0
# Get Qubicle at www.getqubicle.com

mtllib foot_medium.mtl

vn 0.0 0.0 1.0
vn 0.0 0.0 -1.0
vn -1.0 0.0 0.0
vn 1.0 0.0 0.0
vn 0.0 1.0 0.0
vn 0.0 -1.0 0.0

v 4.00000 4.00000 -4.00000
v 4.00000 0.00000 -4.00000
v -6.00000 0.00000 -4.00000
v -6.00000 4.00000 -4.00000
v 2.00000 8.00000 -3.00000
v 2.00000 4.00000 -3.00000
v -4.00000 4.00000 -3.00000
v -4.00000 8.00000 -3.00000
v 1.00000 7.00000 2.00000
v 1.00000 4.00000 2.00000
v -3.00000 4.00000 2.00000
v -3.00000 7.00000 2.00000
v 3.00000 3.00000 3.00000
v 3.00000 1.00000 3.00000
v -5.00000 1.00000 3.00000
v -5.00000 3.00000 3.00000
v 2.00000 4.00000 3.00000
v 2.00000 3.00000 3.00000
v -4.00000 3.00000 3.00000
v -4.00000 4.00000 3.00000
v -6.00000 4.00000 4.00000
v -6.00000 0.00000 4.00000
v 4.00000 0.00000 4.00000
v 4.00000 4.00000 4.00000
v -4.00000 8.00000 3.00000
v 2.00000 8.00000 3.00000
v -3.00000 7.00000 -2.00000
v -3.00000 4.00000 -2.00000
v 1.00000 4.00000 -2.00000
v 1.00000 7.00000 -2.00000
v -5.00000 3.00000 -3.00000
v -5.00000 1.00000 -3.00000
v 3.00000 1.00000 -3.00000
v 3.00000 3.00000 -3.00000
v -4.00000 3.00000 -3.00000
v 2.00000 3.00000 -3.00000
v -6.00000 4.00000 -3.00000
v -6.00000 4.00000 3.00000
v 4.00000 4.00000 3.00000
v 4.00000 4.00000 -3.00000
v -4.00000 4.00000 2.00000
v -4.00000 4.00000 -2.00000
v 2.00000 4.00000 -2.00000
v 2.00000 4.00000 2.00000

vt 0.01563 0.28125
vt 0.01563 0.03125
vt 0.17188 0.03125
vt 0.17188 0.28125
vt 0.20313 0.21875
vt 0.20313 0.03125
vt 0.32813 0.03125
vt 0.32813 0.21875
vt 0.35938 0.21875
vt 0.35938 0.03125
vt 0.45313 0.03125
vt 0.45313 0.21875
vt 0.48438 0.21875
vt 0.48438 0.03125
vt 0.51563 0.03125
vt 0.51563 0.21875
vt 0.54688 0.21875
vt 0.54688 0.03125
vt 0.57813 0.03125
vt 0.57813 0.21875
vt 0.60938 0.21875
vt 0.60938 0.03125
vt 0.62500 0.03125
vt 0.62500 0.21875
vt 0.65625 0.21875
vt 0.65625 0.03125
vt 0.67188 0.03125
vt 0.67188 0.21875
vt 0.70313 0.15625
vt 0.70313 0.03125
vt 0.85938 0.03125
vt 0.85938 0.15625
vt 0.01563 0.46875
vt 0.01563 0.34375
vt 0.17188 0.34375
vt 0.17188 0.46875
vt 0.20313 0.46875
vt 0.20313 0.34375
vt 0.32813 0.34375
vt 0.32813 0.46875
vt 0.35938 0.46875
vt 0.35938 0.34375
vt 0.48438 0.34375
vt 0.48438 0.46875
vt 0.89063 0.15625
vt 0.89063 0.03125
vt 0.98438 0.03125
vt 0.98438 0.15625
vt 0.51563 0.46875
vt 0.51563 0.34375
vt 0.60938 0.34375
vt 0.60938 0.46875
vt 0.64063 0.46875
vt 0.64063 0.34375
vt 0.73438 0.34375
vt 0.73438 0.46875
vt 0.76563 0.46875
vt 0.76563 0.34375
vt 0.85938 0.34375
vt 0.85938 0.46875
vt 0.89063 0.46875
vt 0.89063 0.34375
vt 0.95313 0.34375
vt 0.95313 0.46875
vt 0.01563 0.65625
vt 0.01563 0.53125
vt 0.03125 0.53125
vt 0.03125 0.65625
vt 0.06250 0.65625
vt 0.06250 0.53125
vt 0.07813 0.53125
vt 0.07813 0.65625
vt 0.10938 0.62500
vt 0.10938 0.53125
vt 0.17188 0.53125
vt 0.17188 0.62500
vt 0.20313 0.62500
vt 0.20313 0.53125
vt 0.26563 0.53125
vt 0.26563 0.62500
vt 0.29688 0.62500
vt 0.29688 0.53125
vt 0.35938 0.53125
vt 0.35938 0.62500
vt 0.39063 0.62500
vt 0.39063 0.53125
vt 0.45313 0.53125
vt 0.45313 0.62500
vt 0.48438 0.59375
vt 0.48438 0.53125
vt 0.60938 0.53125
vt 0.60938 0.59375
vt 0.64063 0.59375
vt 0.64063 0.53125
vt 0.76563 0.53125
vt 0.76563 0.59375
vt 0.79688 0.59375
vt 0.79688 0.53125
vt 0.89063 0.53125
vt 0.89063 0.59375
vt 0.01563 0.78125
vt 0.01563 0.71875
vt 0.10938 0.71875
vt 0.10938 0.78125
vt 0.14063 0.75000
vt 0.14063 0.71875
vt 0.29688 0.71875
vt 0.29688 0.75000
vt 0.32813 0.75000
vt 0.32813 0.71875
vt 0.48438 0.71875
vt 0.48438 0.75000
vt 0.51563 0.75000
vt 0.51563 0.71875
vt 0.60938 0.71875
vt 0.60938 0.75000
vt 0.64063 0.75000
vt 0.64063 0.71875
vt 0.73438 0.71875
vt 0.73438 0.75000
vt 0.76563 0.75000
vt 0.76563 0.71875
vt 0.85938 0.71875
vt 0.85938 0.75000
vt 0.89063 0.75000
vt 0.89063 0.71875
vt 0.98438 0.71875
vt 0.98438 0.75000
vt 0.01563 0.87500
vt 0.01563 0.84375
vt 0.10938 0.84375
vt 0.10938 0.87500
vt 0.14063 0.87500
vt 0.14063 0.84375
vt 0.23438 0.84375
vt 0.23438 0.87500

g foot_medium_humanoid_box
usemtl foot_medium_Material
f 1/33/2 2/34/2 3/35/2 4/36/2
f 5/49/2 6/50/2 7/51/2 8/52/2
f 9/81/2 10/82/2 11/83/2 12/84/2
f 13/93/2 14/94/2 15/95/2 16/96/2
f 17/129/2 18/130/2 19/131/2 20/132/2
f 21/29/1 22/30/1 23/31/1 24/32/1
f 25/53/1 20/54/1 17/55/1 26/56/1
f 27/77/1 28/78/1 29/79/1 30/80/1
f 31/89/1 32/90/1 33/91/1 34/92/1
f 7/133/1 35/134/1 36/135/1 6/136/1
f 4/41/3 3/42/3 22/43/3 21/44/3
f 8/57/3 7/58/3 20/59/3 25/60/3
f 30/73/3 29/74/3 10/75/3 9/76/3
f 34/101/3 33/102/3 14/103/3 13/104/3
f 6/121/3 36/122/3 18/123/3 17/124/3
f 24/37/4 23/38/4 2/39/4 1/40/4
f 26/45/4 17/46/4 6/47/4 5/48/4
f 12/85/4 11/86/4 28/87/4 27/88/4
f 16/97/4 15/98/4 32/99/4 31/100/4
f 20/125/4 19/126/4 35/127/4 7/128/4
f 32/5/5 15/6/5 14/7/5 33/8/5
f 8/9/5 25/10/5 26/11/5 5/12/5
f 37/17/5 38/18/5 20/19/5 7/20/5
f 6/13/5 17/14/5 39/15/5 40/16/5
f 4/105/5 37/106/5 40/107/5 1/108/5
f 38/109/5 21/110/5 24/111/5 39/112/5
f 22/1/6 3/2/6 2/3/6 23/4/6
f 16/21/6 31/22/6 35/23/6 19/24/6
f 18/25/6 36/26/6 34/27/6 13/28/6
f 12/61/6 27/62/6 30/63/6 9/64/6
f 41/69/6 42/70/6 28/71/6 11/72/6
f 10/65/6 29/66/6 43/67/6 44/68/6
f 42/117/6 7/118/6 6/119/6 43/120/6
f 20/113/6 41/114/6 44/115/6 17/116/6
