# This file was created with Minddesk Qubicle 3.0
# Get Qubicle at www.getqubicle.com

mtllib forearm_medium.mtl

vn 0.0 0.0 1.0
vn 0.0 0.0 -1.0
vn -1.0 0.0 0.0
vn 1.0 0.0 0.0
vn 0.0 1.0 0.0
vn 0.0 -1.0 0.0

v 3.00000 26.00000 -3.00000
v 3.00000 4.00000 -3.00000
v -3.00000 4.00000 -3.00000
v -3.00000 26.00000 -3.00000
v 2.00000 25.00000 2.00000
v 2.00000 1.00000 2.00000
v -2.00000 1.00000 2.00000
v -2.00000 25.00000 2.00000
v 3.00000 4.00000 -4.00000
v 3.00000 0.00000 -4.00000
v -4.00000 0.00000 -4.00000
v -4.00000 4.00000 -4.00000
v -3.00000 26.00000 3.00000
v -3.00000 4.00000 3.00000
v 3.00000 4.00000 3.00000
v 3.00000 26.00000 3.00000
v -2.00000 25.00000 -2.00000
v -2.00000 1.00000 -2.00000
v 2.00000 1.00000 -2.00000
v 2.00000 25.00000 -2.00000
v -4.00000 4.00000 3.00000
v -4.00000 0.00000 3.00000
v 3.00000 0.00000 3.00000
v -4.00000 4.00000 -3.00000

vt 0.01563 0.39063
vt 0.01563 0.01563
vt 0.07813 0.01563
vt 0.07813 0.39063
vt 0.10938 0.39063
vt 0.10938 0.01563
vt 0.17188 0.01563
vt 0.17188 0.39063
vt 0.20313 0.39063
vt 0.20313 0.01563
vt 0.26563 0.01563
vt 0.26563 0.39063
vt 0.29688 0.39063
vt 0.29688 0.01563
vt 0.35938 0.01563
vt 0.35938 0.39063
vt 0.39063 0.35938
vt 0.39063 0.01563
vt 0.48438 0.01563
vt 0.48438 0.35938
vt 0.51563 0.35938
vt 0.51563 0.01563
vt 0.60938 0.01563
vt 0.60938 0.35938
vt 0.64063 0.35938
vt 0.64063 0.01563
vt 0.73438 0.01563
vt 0.73438 0.35938
vt 0.76563 0.35938
vt 0.76563 0.01563
vt 0.85938 0.01563
vt 0.85938 0.35938
vt 0.01563 0.53125
vt 0.01563 0.42188
vt 0.12500 0.42188
vt 0.12500 0.53125
vt 0.89063 0.10938
vt 0.89063 0.01563
vt 0.98438 0.01563
vt 0.98438 0.10938
vt 0.89063 0.23438
vt 0.89063 0.14063
vt 0.90625 0.14063
vt 0.90625 0.23438
vt 0.15625 0.48438
vt 0.15625 0.42188
vt 0.26563 0.42188
vt 0.26563 0.48438
vt 0.29688 0.48438
vt 0.29688 0.42188
vt 0.40625 0.42188
vt 0.40625 0.48438
vt 0.43750 0.48438
vt 0.43750 0.42188
vt 0.54688 0.42188
vt 0.54688 0.48438
vt 0.57813 0.48438
vt 0.57813 0.42188
vt 0.68750 0.42188
vt 0.68750 0.48438
vt 0.89063 0.32813
vt 0.89063 0.26563
vt 0.95313 0.26563
vt 0.95313 0.32813
vt 0.71875 0.48438
vt 0.71875 0.42188
vt 0.78125 0.42188
vt 0.78125 0.48438
vt 0.81250 0.43750
vt 0.81250 0.42188
vt 0.92188 0.42188
vt 0.92188 0.43750

g forearm_hand_medium_humanoid_box
usemtl forearm_medium_Material
f 1/29/2 2/30/2 3/31/2 4/32/2
f 5/9/2 6/10/2 7/11/2 8/12/2
f 9/45/2 10/46/2 11/47/2 12/48/2
f 13/25/1 14/26/1 15/27/1 16/28/1
f 17/1/1 18/2/1 19/3/1 20/4/1
f 21/49/1 22/50/1 23/51/1 15/52/1
f 4/17/3 3/18/3 14/19/3 13/20/3
f 20/13/3 19/14/3 6/15/3 5/16/3
f 12/57/3 11/58/3 22/59/3 21/60/3
f 16/21/4 15/22/4 2/23/4 1/24/4
f 8/5/4 7/6/4 18/7/4 17/8/4
f 15/53/4 23/54/4 10/55/4 9/56/4
f 4/37/5 13/38/5 16/39/5 1/40/5
f 24/41/5 21/42/5 14/43/5 3/44/5
f 18/65/5 7/66/5 6/67/5 19/68/5
f 12/69/5 24/70/5 2/71/5 9/72/5
f 22/33/6 11/34/6 10/35/6 23/36/6
f 8/61/6 17/62/6 20/63/6 5/64/6
