# This file was created with Minddesk Qubicle 3.0
# Get Qubicle at www.getqubicle.com

mtllib torso_medium.mtl

vn 0.0 0.0 1.0
vn 0.0 0.0 -1.0
vn -1.0 0.0 0.0
vn 1.0 0.0 0.0
vn 0.0 1.0 0.0
vn 0.0 -1.0 0.0

v 8.00000 32.00000 -12.00000
v 8.00000 8.00000 -12.00000
v -8.00000 8.00000 -12.00000
v -8.00000 32.00000 -12.00000
v 7.00000 32.00000 11.00000
v 7.00000 9.00000 11.00000
v -7.00000 9.00000 11.00000
v -7.00000 32.00000 11.00000
v 8.00000 40.00000 -14.00000
v 8.00000 32.00000 -14.00000
v -8.00000 32.00000 -14.00000
v -8.00000 40.00000 -14.00000
v 6.00000 8.00000 -10.00000
v 6.00000 0.00000 -10.00000
v -6.00000 0.00000 -10.00000
v -6.00000 8.00000 -10.00000
v 5.00000 8.00000 9.00000
v 5.00000 1.00000 9.00000
v -5.00000 1.00000 9.00000
v -5.00000 8.00000 9.00000
v 7.00000 39.00000 13.00000
v 7.00000 33.00000 13.00000
v -7.00000 33.00000 13.00000
v -7.00000 39.00000 13.00000
v 6.00000 9.00000 10.00000
v 6.00000 8.00000 10.00000
v -6.00000 8.00000 10.00000
v -6.00000 9.00000 10.00000
v 7.00000 33.00000 12.00000
v 7.00000 32.00000 12.00000
v -7.00000 32.00000 12.00000
v -7.00000 33.00000 12.00000
v -7.00000 32.00000 -11.00000
v -7.00000 9.00000 -11.00000
v 7.00000 9.00000 -11.00000
v 7.00000 32.00000 -11.00000
v -8.00000 32.00000 12.00000
v -8.00000 8.00000 12.00000
v 8.00000 8.00000 12.00000
v 8.00000 32.00000 12.00000
v -7.00000 39.00000 -13.00000
v -7.00000 33.00000 -13.00000
v 7.00000 33.00000 -13.00000
v 7.00000 39.00000 -13.00000
v -5.00000 8.00000 -9.00000
v -5.00000 1.00000 -9.00000
v 5.00000 1.00000 -9.00000
v 5.00000 8.00000 -9.00000
v -6.00000 0.00000 10.00000
v 6.00000 0.00000 10.00000
v -8.00000 40.00000 14.00000
v -8.00000 32.00000 14.00000
v 8.00000 32.00000 14.00000
v 8.00000 40.00000 14.00000
v -7.00000 33.00000 -12.00000
v -7.00000 32.00000 -12.00000
v 7.00000 32.00000 -12.00000
v 7.00000 33.00000 -12.00000
v -6.00000 9.00000 -10.00000
v 6.00000 9.00000 -10.00000
v -7.00000 9.00000 -10.00000
v -7.00000 9.00000 10.00000
v 7.00000 9.00000 10.00000
v 7.00000 9.00000 -10.00000
v -6.00000 8.00000 -9.00000
v -6.00000 8.00000 9.00000
v 6.00000 8.00000 9.00000
v 6.00000 8.00000 -9.00000
v -8.00000 8.00000 10.00000
v -8.00000 8.00000 -10.00000
v 8.00000 8.00000 -10.00000
v 8.00000 8.00000 10.00000

vt 0.00781 0.22656
vt 0.00781 0.00781
vt 0.13281 0.00781
vt 0.13281 0.22656
vt 0.14844 0.21094
vt 0.14844 0.00781
vt 0.25781 0.00781
vt 0.25781 0.21094
vt 0.27344 0.19531
vt 0.27344 0.00781
vt 0.46094 0.00781
vt 0.46094 0.19531
vt 0.47656 0.19531
vt 0.47656 0.00781
vt 0.66406 0.00781
vt 0.66406 0.19531
vt 0.67969 0.19531
vt 0.67969 0.00781
vt 0.80469 0.00781
vt 0.80469 0.19531
vt 0.82031 0.19531
vt 0.82031 0.00781
vt 0.94531 0.00781
vt 0.94531 0.19531
vt 0.00781 0.42188
vt 0.00781 0.24219
vt 0.17969 0.24219
vt 0.17969 0.42188
vt 0.19531 0.42188
vt 0.19531 0.24219
vt 0.36719 0.24219
vt 0.36719 0.42188
vt 0.38281 0.42188
vt 0.38281 0.24219
vt 0.49219 0.24219
vt 0.49219 0.42188
vt 0.50781 0.42188
vt 0.50781 0.24219
vt 0.61719 0.24219
vt 0.61719 0.42188
vt 0.63281 0.39844
vt 0.63281 0.24219
vt 0.72656 0.24219
vt 0.72656 0.39844
vt 0.96094 0.16406
vt 0.96094 0.00781
vt 0.97656 0.00781
vt 0.97656 0.16406
vt 0.74219 0.39844
vt 0.74219 0.24219
vt 0.75781 0.24219
vt 0.75781 0.39844
vt 0.77344 0.39844
vt 0.77344 0.24219
vt 0.78125 0.24219
vt 0.78125 0.39844
vt 0.79688 0.39844
vt 0.79688 0.24219
vt 0.80469 0.24219
vt 0.80469 0.39844
vt 0.82031 0.38281
vt 0.82031 0.24219
vt 0.89844 0.24219
vt 0.89844 0.38281
vt 0.91406 0.38281
vt 0.91406 0.24219
vt 0.92188 0.24219
vt 0.92188 0.38281
vt 0.93750 0.38281
vt 0.93750 0.24219
vt 0.94531 0.24219
vt 0.94531 0.38281
vt 0.00781 0.50000
vt 0.00781 0.43750
vt 0.22656 0.43750
vt 0.22656 0.50000
vt 0.24219 0.50000
vt 0.24219 0.43750
vt 0.46094 0.43750
vt 0.46094 0.50000
vt 0.47656 0.50000
vt 0.47656 0.43750
vt 0.63281 0.43750
vt 0.63281 0.50000
vt 0.64844 0.50000
vt 0.64844 0.43750
vt 0.80469 0.43750
vt 0.80469 0.50000
vt 0.82031 0.50000
vt 0.82031 0.43750
vt 0.94531 0.43750
vt 0.94531 0.50000
vt 0.00781 0.57813
vt 0.00781 0.51563
vt 0.13281 0.51563
vt 0.13281 0.57813
vt 0.14844 0.57813
vt 0.14844 0.51563
vt 0.24219 0.51563
vt 0.24219 0.57813
vt 0.25781 0.57813
vt 0.25781 0.51563
vt 0.35156 0.51563
vt 0.35156 0.57813
vt 0.36719 0.57031
vt 0.36719 0.51563
vt 0.50781 0.51563
vt 0.50781 0.57031
vt 0.52344 0.57031
vt 0.52344 0.51563
vt 0.66406 0.51563
vt 0.66406 0.57031
vt 0.67969 0.57031
vt 0.67969 0.51563
vt 0.75781 0.51563
vt 0.75781 0.57031
vt 0.77344 0.57031
vt 0.77344 0.51563
vt 0.85156 0.51563
vt 0.85156 0.57031
vt 0.00781 0.64063
vt 0.00781 0.59375
vt 0.21094 0.59375
vt 0.21094 0.64063
vt 0.22656 0.64063
vt 0.22656 0.59375
vt 0.42969 0.59375
vt 0.42969 0.64063
vt 0.86719 0.56250
vt 0.86719 0.51563
vt 0.97656 0.51563
vt 0.97656 0.56250
vt 0.44531 0.64063
vt 0.44531 0.59375
vt 0.55469 0.59375
vt 0.55469 0.64063
vt 0.57031 0.60938
vt 0.57031 0.59375
vt 0.69531 0.59375
vt 0.69531 0.60938
vt 0.71094 0.60938
vt 0.71094 0.59375
vt 0.83594 0.59375
vt 0.83594 0.60938
vt 0.85156 0.60938
vt 0.85156 0.59375
vt 0.97656 0.59375
vt 0.97656 0.60938
vt 0.57031 0.64063
vt 0.57031 0.62500
vt 0.69531 0.62500
vt 0.69531 0.64063
vt 0.63281 0.42188
vt 0.63281 0.41406
vt 0.82031 0.41406
vt 0.82031 0.42188
vt 0.71094 0.63281
vt 0.71094 0.62500
vt 0.89844 0.62500
vt 0.89844 0.63281
vt 0.83594 0.42188
vt 0.83594 0.41406
vt 0.99219 0.41406
vt 0.99219 0.42188
vt 0.00781 0.66406
vt 0.00781 0.65625
vt 0.16406 0.65625
vt 0.16406 0.66406
vt 0.17969 0.66406
vt 0.17969 0.65625
vt 0.28906 0.65625
vt 0.28906 0.66406
vt 0.30469 0.66406
vt 0.30469 0.65625
vt 0.41406 0.65625
vt 0.41406 0.66406
vt 0.42969 0.66406
vt 0.42969 0.65625
vt 0.53906 0.65625
vt 0.53906 0.66406
vt 0.55469 0.66406
vt 0.55469 0.65625
vt 0.66406 0.65625
vt 0.66406 0.66406
vt 0.67969 0.66406
vt 0.67969 0.65625
vt 0.78906 0.65625
vt 0.78906 0.66406
vt 0.80469 0.66406
vt 0.80469 0.65625
vt 0.91406 0.65625
vt 0.91406 0.66406
vt 0.00781 0.68750
vt 0.00781 0.67969
vt 0.11719 0.67969
vt 0.11719 0.68750
vt 0.13281 0.68750
vt 0.13281 0.67969
vt 0.24219 0.67969
vt 0.24219 0.68750
vt 0.25781 0.68750
vt 0.25781 0.67969
vt 0.35156 0.67969
vt 0.35156 0.68750
vt 0.36719 0.68750
vt 0.36719 0.67969
vt 0.46094 0.67969
vt 0.46094 0.68750
vt 0.47656 0.68750
vt 0.47656 0.67969
vt 0.57031 0.67969
vt 0.57031 0.68750
vt 0.58594 0.68750
vt 0.58594 0.67969
vt 0.67969 0.67969
vt 0.67969 0.68750

g torso_medium_humanoid_box
usemtl torso_medium_Material
f 1/17/2 2/18/2 3/19/2 4/20/2
f 5/33/2 6/34/2 7/35/2 8/36/2
f 9/89/2 10/90/2 11/91/2 12/92/2
f 13/97/2 14/98/2 15/99/2 16/100/2
f 17/113/2 18/114/2 19/115/2 20/116/2
f 21/129/2 22/130/2 23/131/2 24/132/2
f 25/205/2 26/206/2 27/207/2 28/208/2
f 29/169/2 30/170/2 31/171/2 32/172/2
f 33/37/1 34/38/1 35/39/1 36/40/1
f 37/21/1 38/22/1 39/23/1 40/24/1
f 41/133/1 42/134/1 43/135/1 44/136/1
f 45/117/1 46/118/1 47/119/1 48/120/1
f 27/101/1 49/102/1 50/103/1 26/104/1
f 51/93/1 52/94/1 53/95/1 54/96/1
f 55/197/1 56/198/1 57/199/1 58/200/1
f 59/201/1 16/202/1 13/203/1 60/204/1
f 4/13/3 3/14/3 38/15/3 37/16/3
f 36/29/3 35/30/3 6/31/3 5/32/3
f 12/73/3 11/74/3 52/75/3 51/76/3
f 44/121/3 43/122/3 22/123/3 21/124/3
f 16/85/3 15/86/3 49/87/3 27/88/3
f 48/105/3 47/106/3 18/107/3 17/108/3
f 58/157/3 57/158/3 30/159/3 29/160/3
f 60/165/3 13/166/3 26/167/3 25/168/3
f 40/9/4 39/10/4 2/11/4 1/12/4
f 8/25/4 7/26/4 34/27/4 33/28/4
f 54/77/4 53/78/4 10/79/4 9/80/4
f 24/125/4 23/126/4 42/127/4 41/128/4
f 26/81/4 50/82/4 14/83/4 13/84/4
f 20/109/4 19/110/4 46/111/4 45/112/4
f 32/153/4 31/154/4 56/155/4 55/156/4
f 28/161/4 27/162/4 16/163/4 59/164/4
f 12/1/5 51/2/5 54/3/5 9/4/5
f 46/61/5 19/62/5 18/63/5 47/64/5
f 61/57/5 62/58/5 28/59/5 59/60/5
f 60/53/5 25/54/5 63/55/5 64/56/5
f 65/65/5 66/66/5 20/67/5 45/68/5
f 48/69/5 17/70/5 67/71/5 68/72/5
f 42/181/5 55/182/5 58/183/5 43/184/5
f 56/185/5 33/186/5 36/187/5 57/188/5
f 34/173/5 61/174/5 64/175/5 35/176/5
f 16/213/5 65/214/5 68/215/5 13/216/5
f 66/209/5 27/210/5 26/211/5 67/212/5
f 62/177/5 7/178/5 6/179/5 63/180/5
f 8/193/5 31/194/5 30/195/5 5/196/5
f 32/189/5 23/190/5 22/191/5 29/192/5
f 24/5/6 41/6/6 44/7/6 21/8/6
f 49/41/6 15/42/6 14/43/6 50/44/6
f 69/49/6 70/50/6 16/51/6 27/52/6
f 26/45/6 13/46/6 71/47/6 72/48/6
f 4/141/6 11/142/6 10/143/6 1/144/6
f 70/137/6 3/138/6 2/139/6 71/140/6
f 38/145/6 69/146/6 72/147/6 39/148/6
f 52/149/6 37/150/6 40/151/6 53/152/6
