# This file was created with Minddesk Qubicle 3.0
# Get Qubicle at www.getqubicle.com

mtllib equipment_shield_kite.mtl

vn 0.0 0.0 1.0
vn 0.0 0.0 -1.0
vn -1.0 0.0 0.0
vn 1.0 0.0 0.0
vn 0.0 1.0 0.0
vn 0.0 -1.0 0.0

v 3.00000 37.00000 -1.00000
v 3.00000 32.00000 -1.00000
v 0.00000 32.00000 -1.00000
v 0.00000 37.00000 -1.00000
v 0.00000 53.00000 0.00000
v 0.00000 48.00000 0.00000
v -1.00000 48.00000 0.00000
v -1.00000 53.00000 0.00000
v 3.00000 61.00000 -9.00000
v 3.00000 58.00000 -9.00000
v 0.00000 58.00000 -9.00000
v 0.00000 61.00000 -9.00000
v 3.00000 58.00000 -8.00000
v 3.00000 54.00000 -8.00000
v 0.00000 54.00000 -8.00000
v 0.00000 58.00000 -8.00000
v 3.00000 54.00000 -7.00000
v 3.00000 51.00000 -7.00000
v 0.00000 51.00000 -7.00000
v 0.00000 54.00000 -7.00000
v 3.00000 51.00000 -6.00000
v 3.00000 48.00000 -6.00000
v 0.00000 48.00000 -6.00000
v 0.00000 51.00000 -6.00000
v 3.00000 48.00000 -5.00000
v 3.00000 45.00000 -5.00000
v 0.00000 45.00000 -5.00000
v 0.00000 48.00000 -5.00000
v 3.00000 45.00000 -4.00000
v 3.00000 42.00000 -4.00000
v 0.00000 42.00000 -4.00000
v 0.00000 45.00000 -4.00000
v 3.00000 42.00000 -3.00000
v 3.00000 39.00000 -3.00000
v 0.00000 39.00000 -3.00000
v 0.00000 42.00000 -3.00000
v 3.00000 39.00000 -2.00000
v 3.00000 37.00000 -2.00000
v 0.00000 37.00000 -2.00000
v 0.00000 39.00000 -2.00000
v 0.00000 56.00000 0.00000
v 0.00000 54.00000 0.00000
v -1.00000 54.00000 0.00000
v -1.00000 56.00000 0.00000
v 3.00000 62.00000 -10.00000
v 3.00000 61.00000 -10.00000
v 0.00000 61.00000 -10.00000
v 0.00000 62.00000 -10.00000
v 4.00000 54.00000 -3.00000
v 4.00000 53.00000 -3.00000
v 3.00000 53.00000 -3.00000
v 3.00000 54.00000 -3.00000
v 0.00000 54.00000 -2.00000
v 0.00000 53.00000 -2.00000
v -1.00000 53.00000 -2.00000
v -1.00000 54.00000 -2.00000
v 4.00000 53.00000 -2.00000
v 4.00000 52.00000 -2.00000
v 3.00000 52.00000 -2.00000
v 3.00000 53.00000 -2.00000
v 4.00000 52.00000 -1.00000
v 4.00000 51.00000 -1.00000
v 3.00000 51.00000 -1.00000
v 3.00000 52.00000 -1.00000
v 4.00000 51.00000 0.00000
v 4.00000 50.00000 0.00000
v 3.00000 50.00000 0.00000
v 3.00000 51.00000 0.00000
v 0.00000 37.00000 2.00000
v 0.00000 32.00000 2.00000
v 3.00000 32.00000 2.00000
v 3.00000 37.00000 2.00000
v -1.00000 53.00000 1.00000
v -1.00000 48.00000 1.00000
v 0.00000 48.00000 1.00000
v 0.00000 53.00000 1.00000
v 0.00000 42.00000 4.00000
v 0.00000 39.00000 4.00000
v 3.00000 39.00000 4.00000
v 3.00000 42.00000 4.00000
v 0.00000 45.00000 5.00000
v 0.00000 42.00000 5.00000
v 3.00000 42.00000 5.00000
v 3.00000 45.00000 5.00000
v 0.00000 48.00000 6.00000
v 0.00000 45.00000 6.00000
v 3.00000 45.00000 6.00000
v 3.00000 48.00000 6.00000
v 0.00000 51.00000 7.00000
v 0.00000 48.00000 7.00000
v 3.00000 48.00000 7.00000
v 3.00000 51.00000 7.00000
v 0.00000 54.00000 8.00000
v 0.00000 51.00000 8.00000
v 3.00000 51.00000 8.00000
v 3.00000 54.00000 8.00000
v 0.00000 58.00000 9.00000
v 0.00000 54.00000 9.00000
v 3.00000 54.00000 9.00000
v 3.00000 58.00000 9.00000
v 0.00000 61.00000 10.00000
v 0.00000 58.00000 10.00000
v 3.00000 58.00000 10.00000
v 3.00000 61.00000 10.00000
v 0.00000 39.00000 3.00000
v 0.00000 37.00000 3.00000
v 3.00000 37.00000 3.00000
v 3.00000 39.00000 3.00000
v -1.00000 56.00000 1.00000
v -1.00000 54.00000 1.00000
v 0.00000 54.00000 1.00000
v 0.00000 56.00000 1.00000
v 0.00000 62.00000 11.00000
v 0.00000 61.00000 11.00000
v 3.00000 61.00000 11.00000
v 3.00000 62.00000 11.00000
v 3.00000 51.00000 1.00000
v 3.00000 50.00000 1.00000
v 4.00000 50.00000 1.00000
v 4.00000 51.00000 1.00000
v 3.00000 52.00000 2.00000
v 3.00000 51.00000 2.00000
v 4.00000 51.00000 2.00000
v 4.00000 52.00000 2.00000
v -1.00000 54.00000 3.00000
v -1.00000 53.00000 3.00000
v 0.00000 53.00000 3.00000
v 0.00000 54.00000 3.00000
v 3.00000 53.00000 3.00000
v 3.00000 52.00000 3.00000
v 4.00000 52.00000 3.00000
v 4.00000 53.00000 3.00000
v 3.00000 54.00000 4.00000
v 3.00000 53.00000 4.00000
v 4.00000 53.00000 4.00000
v 4.00000 54.00000 4.00000
v 0.00000 51.00000 0.00000
v 0.00000 51.00000 1.00000
v 0.00000 56.00000 -8.00000
v 0.00000 56.00000 9.00000
v 0.00000 53.00000 -7.00000
v 0.00000 53.00000 8.00000
v 3.00000 50.00000 7.00000
v 3.00000 50.00000 -6.00000
v 3.00000 52.00000 -7.00000
v 3.00000 53.00000 -7.00000
v 3.00000 52.00000 8.00000
v 3.00000 53.00000 8.00000

vt 0.01563 0.34375
vt 0.01563 0.01563
vt 0.06250 0.01563
vt 0.06250 0.34375
vt 0.09375 0.12500
vt 0.09375 0.01563
vt 0.10938 0.01563
vt 0.10938 0.12500
vt 0.14063 0.09375
vt 0.14063 0.01563
vt 0.18750 0.01563
vt 0.18750 0.09375
vt 0.21875 0.09375
vt 0.21875 0.01563
vt 0.26563 0.01563
vt 0.26563 0.09375
vt 0.29688 0.09375
vt 0.29688 0.01563
vt 0.34375 0.01563
vt 0.34375 0.09375
vt 0.37500 0.09375
vt 0.37500 0.01563
vt 0.42188 0.01563
vt 0.42188 0.09375
vt 0.45313 0.09375
vt 0.45313 0.01563
vt 0.46875 0.01563
vt 0.46875 0.09375
vt 0.50000 0.09375
vt 0.50000 0.01563
vt 0.51563 0.01563
vt 0.51563 0.09375
vt 0.54688 0.09375
vt 0.54688 0.01563
vt 0.56250 0.01563
vt 0.56250 0.09375
vt 0.59375 0.07813
vt 0.59375 0.01563
vt 0.85938 0.01563
vt 0.85938 0.07813
vt 0.89063 0.07813
vt 0.89063 0.01563
vt 0.93750 0.01563
vt 0.93750 0.07813
vt 0.09375 0.21875
vt 0.09375 0.15625
vt 0.14063 0.15625
vt 0.14063 0.21875
vt 0.17188 0.20313
vt 0.17188 0.15625
vt 0.46875 0.15625
vt 0.46875 0.20313
vt 0.50000 0.20313
vt 0.50000 0.15625
vt 0.79688 0.15625
vt 0.79688 0.20313
vt 0.09375 0.29688
vt 0.09375 0.25000
vt 0.26563 0.25000
vt 0.26563 0.29688
vt 0.29688 0.29688
vt 0.29688 0.25000
vt 0.46875 0.25000
vt 0.46875 0.29688
vt 0.82813 0.20313
vt 0.82813 0.15625
vt 0.96875 0.15625
vt 0.96875 0.20313
vt 0.50000 0.29688
vt 0.50000 0.25000
vt 0.64063 0.25000
vt 0.64063 0.29688
vt 0.67188 0.29688
vt 0.67188 0.25000
vt 0.78125 0.25000
vt 0.78125 0.29688
vt 0.81250 0.29688
vt 0.81250 0.25000
vt 0.92188 0.25000
vt 0.92188 0.29688
vt 0.01563 0.42188
vt 0.01563 0.37500
vt 0.10938 0.37500
vt 0.10938 0.42188
vt 0.14063 0.42188
vt 0.14063 0.37500
vt 0.23438 0.37500
vt 0.23438 0.42188
vt 0.26563 0.42188
vt 0.26563 0.37500
vt 0.31250 0.37500
vt 0.31250 0.42188
vt 0.34375 0.42188
vt 0.34375 0.37500
vt 0.39063 0.37500
vt 0.39063 0.42188
vt 0.42188 0.42188
vt 0.42188 0.37500
vt 0.46875 0.37500
vt 0.46875 0.42188
vt 0.50000 0.42188
vt 0.50000 0.37500
vt 0.54688 0.37500
vt 0.54688 0.42188
vt 0.57813 0.42188
vt 0.57813 0.37500
vt 0.62500 0.37500
vt 0.62500 0.42188
vt 0.65625 0.42188
vt 0.65625 0.37500
vt 0.70313 0.37500
vt 0.70313 0.42188
vt 0.73438 0.42188
vt 0.73438 0.37500
vt 0.78125 0.37500
vt 0.78125 0.42188
vt 0.81250 0.42188
vt 0.81250 0.37500
vt 0.85938 0.37500
vt 0.85938 0.42188
vt 0.89063 0.42188
vt 0.89063 0.37500
vt 0.93750 0.37500
vt 0.93750 0.42188
vt 0.01563 0.50000
vt 0.01563 0.45313
vt 0.06250 0.45313
vt 0.06250 0.50000
vt 0.09375 0.50000
vt 0.09375 0.45313
vt 0.14063 0.45313
vt 0.14063 0.50000
vt 0.17188 0.50000
vt 0.17188 0.45313
vt 0.21875 0.45313
vt 0.21875 0.50000
vt 0.25000 0.50000
vt 0.25000 0.45313
vt 0.29688 0.45313
vt 0.29688 0.50000
vt 0.32813 0.48438
vt 0.32813 0.45313
vt 0.59375 0.45313
vt 0.59375 0.48438
vt 0.62500 0.48438
vt 0.62500 0.45313
vt 0.82813 0.45313
vt 0.82813 0.48438
vt 0.85938 0.48438
vt 0.85938 0.45313
vt 0.98438 0.45313
vt 0.98438 0.48438
vt 0.01563 0.56250
vt 0.01563 0.53125
vt 0.14063 0.53125
vt 0.14063 0.56250
vt 0.17188 0.56250
vt 0.17188 0.53125
vt 0.28125 0.53125
vt 0.28125 0.56250
vt 0.31250 0.56250
vt 0.31250 0.53125
vt 0.42188 0.53125
vt 0.42188 0.56250
vt 0.45313 0.56250
vt 0.45313 0.53125
vt 0.53125 0.53125
vt 0.53125 0.56250
vt 0.56250 0.56250
vt 0.56250 0.53125
vt 0.64063 0.53125
vt 0.64063 0.56250
vt 0.67188 0.56250
vt 0.67188 0.53125
vt 0.71875 0.53125
vt 0.71875 0.56250
vt 0.75000 0.56250
vt 0.75000 0.53125
vt 0.79688 0.53125
vt 0.79688 0.56250
vt 0.96875 0.04688
vt 0.96875 0.01563
vt 0.98438 0.01563
vt 0.98438 0.04688
vt 0.95313 0.28125
vt 0.95313 0.25000
vt 0.96875 0.25000
vt 0.96875 0.28125
vt 0.96875 0.40625
vt 0.96875 0.37500
vt 0.98438 0.37500
vt 0.98438 0.40625
vt 0.82813 0.56250
vt 0.82813 0.53125
vt 0.84375 0.53125
vt 0.84375 0.56250
vt 0.87500 0.56250
vt 0.87500 0.53125
vt 0.89063 0.53125
vt 0.89063 0.56250
vt 0.92188 0.56250
vt 0.92188 0.53125
vt 0.93750 0.53125
vt 0.93750 0.56250
vt 0.96875 0.56250
vt 0.96875 0.53125
vt 0.98438 0.53125
vt 0.98438 0.56250
vt 0.09375 0.34375
vt 0.09375 0.32813
vt 0.42188 0.32813
vt 0.42188 0.34375
vt 0.45313 0.34375
vt 0.45313 0.32813
vt 0.78125 0.32813
vt 0.78125 0.34375
vt 0.81250 0.34375
vt 0.81250 0.32813
vt 0.92188 0.32813
vt 0.92188 0.34375
vt 0.01563 0.60938
vt 0.01563 0.59375
vt 0.10938 0.59375
vt 0.10938 0.60938
vt 0.14063 0.60938
vt 0.14063 0.59375
vt 0.23438 0.59375
vt 0.23438 0.60938
vt 0.26563 0.60938
vt 0.26563 0.59375
vt 0.35938 0.59375
vt 0.35938 0.60938
vt 0.39063 0.60938
vt 0.39063 0.59375
vt 0.48438 0.59375
vt 0.48438 0.60938
vt 0.51563 0.60938
vt 0.51563 0.59375
vt 0.59375 0.59375
vt 0.59375 0.60938
vt 0.62500 0.60938
vt 0.62500 0.59375
vt 0.70313 0.59375
vt 0.70313 0.60938
vt 0.73438 0.60938
vt 0.73438 0.59375
vt 0.81250 0.59375
vt 0.81250 0.60938
vt 0.84375 0.60938
vt 0.84375 0.59375
vt 0.92188 0.59375
vt 0.92188 0.60938
vt 0.01563 0.65625
vt 0.01563 0.64063
vt 0.09375 0.64063
vt 0.09375 0.65625
vt 0.12500 0.65625
vt 0.12500 0.64063
vt 0.20313 0.64063
vt 0.20313 0.65625
vt 0.23438 0.65625
vt 0.23438 0.64063
vt 0.29688 0.64063
vt 0.29688 0.65625
vt 0.32813 0.65625
vt 0.32813 0.64063
vt 0.39063 0.64063
vt 0.39063 0.65625
vt 0.42188 0.65625
vt 0.42188 0.64063
vt 0.46875 0.64063
vt 0.46875 0.65625
vt 0.50000 0.65625
vt 0.50000 0.64063
vt 0.54688 0.64063
vt 0.54688 0.65625
vt 0.57813 0.65625
vt 0.57813 0.64063
vt 0.62500 0.64063
vt 0.62500 0.65625
vt 0.65625 0.65625
vt 0.65625 0.64063
vt 0.70313 0.64063
vt 0.70313 0.65625
vt 0.73438 0.65625
vt 0.73438 0.64063
vt 0.78125 0.64063
vt 0.78125 0.65625
vt 0.81250 0.65625
vt 0.81250 0.64063
vt 0.85938 0.64063
vt 0.85938 0.65625
vt 0.89063 0.65625
vt 0.89063 0.64063
vt 0.93750 0.64063
vt 0.93750 0.65625
vt 0.01563 0.70313
vt 0.01563 0.68750
vt 0.06250 0.68750
vt 0.06250 0.70313
vt 0.09375 0.70313
vt 0.09375 0.68750
vt 0.14063 0.68750
vt 0.14063 0.70313
vt 0.17188 0.70313
vt 0.17188 0.68750
vt 0.21875 0.68750
vt 0.21875 0.70313
vt 0.25000 0.70313
vt 0.25000 0.68750
vt 0.29688 0.68750
vt 0.29688 0.70313
vt 0.32813 0.70313
vt 0.32813 0.68750
vt 0.37500 0.68750
vt 0.37500 0.70313
vt 0.40625 0.70313
vt 0.40625 0.68750
vt 0.45313 0.68750
vt 0.45313 0.70313
vt 0.48438 0.70313
vt 0.48438 0.68750
vt 0.53125 0.68750
vt 0.53125 0.70313
vt 0.56250 0.70313
vt 0.56250 0.68750
vt 0.60938 0.68750
vt 0.60938 0.70313
vt 0.64063 0.70313
vt 0.64063 0.68750
vt 0.68750 0.68750
vt 0.68750 0.70313
vt 0.71875 0.70313
vt 0.71875 0.68750
vt 0.76563 0.68750
vt 0.76563 0.70313
vt 0.79688 0.70313
vt 0.79688 0.68750
vt 0.84375 0.68750
vt 0.84375 0.70313
vt 0.87500 0.70313
vt 0.87500 0.68750
vt 0.92188 0.68750
vt 0.92188 0.70313
vt 0.01563 0.75000
vt 0.01563 0.73438
vt 0.06250 0.73438
vt 0.06250 0.75000
vt 0.09375 0.75000
vt 0.09375 0.73438
vt 0.14063 0.73438
vt 0.14063 0.75000
vt 0.95313 0.34375
vt 0.95313 0.32813
vt 0.96875 0.32813
vt 0.96875 0.34375
vt 0.95313 0.60938
vt 0.95313 0.59375
vt 0.96875 0.59375
vt 0.96875 0.60938
vt 0.96875 0.65625
vt 0.96875 0.64063
vt 0.98438 0.64063
vt 0.98438 0.65625
vt 0.95313 0.70313
vt 0.95313 0.68750
vt 0.96875 0.68750
vt 0.96875 0.70313
vt 0.17188 0.75000
vt 0.17188 0.73438
vt 0.18750 0.73438
vt 0.18750 0.75000
vt 0.21875 0.75000
vt 0.21875 0.73438
vt 0.23438 0.73438
vt 0.23438 0.75000
vt 0.26563 0.75000
vt 0.26563 0.73438
vt 0.28125 0.73438
vt 0.28125 0.75000
vt 0.31250 0.75000
vt 0.31250 0.73438
vt 0.32813 0.73438
vt 0.32813 0.75000
vt 0.35938 0.75000
vt 0.35938 0.73438
vt 0.37500 0.73438
vt 0.37500 0.75000
vt 0.40625 0.75000
vt 0.40625 0.73438
vt 0.42188 0.73438
vt 0.42188 0.75000
vt 0.45313 0.75000
vt 0.45313 0.73438
vt 0.46875 0.73438
vt 0.46875 0.75000
vt 0.50000 0.75000
vt 0.50000 0.73438
vt 0.51563 0.73438
vt 0.51563 0.75000
vt 0.54688 0.75000
vt 0.54688 0.73438
vt 0.56250 0.73438
vt 0.56250 0.75000
vt 0.59375 0.75000
vt 0.59375 0.73438
vt 0.60938 0.73438
vt 0.60938 0.75000
vt 0.64063 0.75000
vt 0.64063 0.73438
vt 0.65625 0.73438
vt 0.65625 0.75000
vt 0.68750 0.75000
vt 0.68750 0.73438
vt 0.70313 0.73438
vt 0.70313 0.75000
vt 0.73438 0.75000
vt 0.73438 0.73438
vt 0.75000 0.73438
vt 0.75000 0.75000
vt 0.78125 0.75000
vt 0.78125 0.73438
vt 0.79688 0.73438
vt 0.79688 0.75000
vt 0.82813 0.75000
vt 0.82813 0.73438
vt 0.84375 0.73438
vt 0.84375 0.75000
vt 0.87500 0.75000
vt 0.87500 0.73438
vt 0.89063 0.73438
vt 0.89063 0.75000

g equipment_shield_kite
usemtl equipment_shield_kite_Material
f 1/13/2 2/14/2 3/15/2 4/16/2
f 5/33/2 6/34/2 7/35/2 8/36/2
f 9/117/2 10/118/2 11/119/2 12/120/2
f 13/41/2 14/42/2 15/43/2 16/44/2
f 17/129/2 18/130/2 19/131/2 20/132/2
f 21/101/2 22/102/2 23/103/2 24/104/2
f 25/97/2 26/98/2 27/99/2 28/100/2
f 29/125/2 30/126/2 31/127/2 32/128/2
f 33/137/2 34/138/2 35/139/2 36/140/2
f 37/173/2 38/174/2 39/175/2 40/176/2
f 41/189/2 42/190/2 43/191/2 44/192/2
f 45/281/2 46/282/2 47/283/2 48/284/2
f 49/413/2 50/414/2 51/415/2 52/416/2
f 53/421/2 54/422/2 55/423/2 56/424/2
f 57/429/2 58/430/2 59/431/2 60/432/2
f 61/425/2 62/426/2 63/427/2 64/428/2
f 65/397/2 66/398/2 67/399/2 68/400/2
f 69/17/1 70/18/1 71/19/1 72/20/1
f 73/29/1 74/30/1 75/31/1 76/32/1
f 77/89/1 78/90/1 79/91/1 80/92/1
f 81/109/1 82/110/1 83/111/1 84/112/1
f 85/113/1 86/114/1 87/115/1 88/116/1
f 89/93/1 90/94/1 91/95/1 92/96/1
f 93/105/1 94/106/1 95/107/1 96/108/1
f 97/45/1 98/46/1 99/47/1 100/48/1
f 101/121/1 102/122/1 103/123/1 104/124/1
f 105/177/1 106/178/1 107/179/1 108/180/1
f 109/185/1 110/186/1 111/187/1 112/188/1
f 113/333/1 114/334/1 115/335/1 116/336/1
f 117/405/1 118/406/1 119/407/1 120/408/1
f 121/409/1 122/410/1 123/411/1 124/412/1
f 125/401/1 126/402/1 127/403/1 128/404/1
f 129/417/1 130/418/1 131/419/1 132/420/1
f 133/389/1 134/390/1 135/391/1 136/392/1
f 4/21/3 3/22/3 70/23/3 69/24/3
f 8/25/3 7/26/3 74/27/3 73/28/3
f 12/53/3 11/54/3 102/55/3 101/56/3
f 28/57/3 27/58/3 86/59/3 85/60/3
f 32/65/3 31/66/3 82/67/3 81/68/3
f 24/81/3 23/82/3 6/83/3 137/84/3
f 36/77/3 35/78/3 78/79/3 77/80/3
f 138/85/3 75/86/3 90/87/3 89/88/3
f 16/141/3 139/142/3 140/143/3 97/144/3
f 139/153/3 15/154/3 42/155/3 41/156/3
f 141/161/3 19/162/3 137/163/3 5/164/3
f 40/169/3 39/170/3 106/171/3 105/172/3
f 76/157/3 138/158/3 94/159/3 142/160/3
f 112/149/3 111/150/3 98/151/3 140/152/3
f 44/205/3 43/206/3 110/207/3 109/208/3
f 48/209/3 47/210/3 114/211/3 113/212/3
f 20/253/3 141/254/3 54/255/3 53/256/3
f 56/249/3 55/250/3 126/251/3 125/252/3
f 128/257/3 127/258/3 142/259/3 93/260/3
f 72/9/4 71/10/4 2/11/4 1/12/4
f 104/49/4 103/50/4 10/51/4 9/52/4
f 100/37/4 99/38/4 14/39/4 13/40/4
f 88/61/4 87/62/4 26/63/4 25/64/4
f 84/69/4 83/70/4 30/71/4 29/72/4
f 80/73/4 79/74/4 34/75/4 33/76/4
f 143/145/4 91/146/4 22/147/4 144/148/4
f 108/165/4 107/166/4 38/167/4 37/168/4
f 116/213/4 115/214/4 46/215/4 45/216/4
f 64/229/4 63/230/4 18/231/4 145/232/4
f 60/237/4 59/238/4 145/239/4 146/240/4
f 68/233/4 67/234/4 144/235/4 21/236/4
f 136/217/4 135/218/4 50/219/4 49/220/4
f 132/241/4 131/242/4 58/243/4 57/244/4
f 92/221/4 143/222/4 118/223/4 117/224/4
f 147/225/4 95/226/4 122/227/4 121/228/4
f 148/245/4 147/246/4 130/247/4 129/248/4
f 52/265/4 51/266/4 146/267/4 17/268/4
f 124/337/4 123/338/4 62/339/4 61/340/4
f 96/261/4 148/262/4 134/263/4 133/264/4
f 120/369/4 119/370/4 66/371/4 65/372/4
f 48/1/5 113/2/5 116/3/5 45/4/5
f 52/5/5 133/6/5 136/7/5 49/8/5
f 56/193/5 43/194/5 42/195/5 53/196/5
f 110/201/5 125/202/5 128/203/5 111/204/5
f 44/365/5 109/366/5 112/367/5 41/368/5
f 70/133/6 3/134/6 2/135/6 71/136/6
f 8/197/6 55/198/6 54/199/6 5/200/6
f 126/181/6 73/182/6 76/183/6 127/184/6
f 12/341/6 47/342/6 46/343/6 9/344/6
f 16/349/6 11/350/6 10/351/6 13/352/6
f 20/345/6 15/346/6 14/347/6 17/348/6
f 24/289/6 19/290/6 18/291/6 21/292/6
f 28/285/6 23/286/6 22/287/6 25/288/6
f 32/297/6 27/298/6 26/299/6 29/300/6
f 36/293/6 31/294/6 30/295/6 33/296/6
f 40/273/6 35/274/6 34/275/6 37/276/6
f 4/269/6 39/270/6 38/271/6 1/272/6
f 106/277/6 69/278/6 72/279/6 107/280/6
f 78/321/6 105/322/6 108/323/6 79/324/6
f 82/317/6 77/318/6 80/319/6 83/320/6
f 86/329/6 81/330/6 84/331/6 87/332/6
f 90/325/6 85/326/6 88/327/6 91/328/6
f 94/305/6 89/306/6 92/307/6 95/308/6
f 98/301/6 93/302/6 96/303/6 99/304/6
f 102/313/6 97/314/6 100/315/6 103/316/6
f 114/309/6 101/310/6 104/311/6 115/312/6
f 60/385/6 51/386/6 50/387/6 57/388/6
f 64/373/6 59/374/6 58/375/6 61/376/6
f 68/357/6 63/358/6 62/359/6 65/360/6
f 74/353/6 7/354/6 6/355/6 75/356/6
f 118/381/6 67/382/6 66/383/6 119/384/6
f 122/361/6 117/362/6 120/363/6 123/364/6
f 130/393/6 121/394/6 124/395/6 131/396/6
f 134/377/6 129/378/6 132/379/6 135/380/6
